<svg width="129" height="71" viewBox="0 0 129 71" fill="none" xmlns="http://www.w3.org/2000/svg">
<g clip-path="url(#clip0_408_2058)">
<path d="M61.6521 18.0175H43.815C43.1691 18.0163 42.5456 18.4495 42.0646 19.2337C41.5835 20.0179 41.2788 21.0978 41.209 22.2659L41.0964 24.1092C41.037 25.0327 41.1272 25.9676 41.3558 26.7992C41.5844 27.6308 41.9415 28.3229 42.3833 28.7906L50.5683 37.3869C51.0039 37.8447 51.3656 38.5028 51.617 39.2953C51.8685 40.0878 52.0009 40.9866 52.0009 41.9016C52.0009 42.8166 51.8685 43.7155 51.617 44.5079C51.3656 45.3004 51.0039 45.9586 50.5683 46.4163L40.1569 57.3533C39.8019 57.7296 39.5004 58.2524 39.2768 58.8796C39.0533 59.5068 38.9139 60.2207 38.87 60.9639C38.8254 61.6862 38.8738 62.4175 39.0115 63.0998L39.9574 67.869C40.1393 68.7928 40.4737 69.5918 40.9149 70.1565C41.3561 70.7211 41.8825 71.0238 42.4219 71.0232H63.0419C63.5818 71.0233 64.1084 70.7205 64.5501 70.156C64.9917 69.5915 65.3268 68.7928 65.5097 67.869L66.4491 63.0822C66.584 62.3987 66.6324 61.6686 66.5907 60.9463L64.2517 22.2659C64.1813 21.1003 63.8773 20.0228 63.3977 19.2391C62.9182 18.4554 62.2967 18.0205 61.6521 18.0175Z" fill="white"/>
<path d="M58.3542 14.5521C58.1996 14.5521 58.0465 14.4964 57.9038 14.3883C57.7611 14.2801 57.6316 14.1217 57.5227 13.922C57.4138 13.7224 57.3277 13.4855 57.2695 13.225C57.2112 12.9646 57.1818 12.6857 57.1831 12.4045V12.3401C57.1991 11.2586 57.0958 10.1823 56.8793 9.17459C56.6628 8.16692 56.3375 7.24835 55.9225 6.47313C55.5076 5.69791 55.0115 5.08174 54.4635 4.66101C53.9155 4.24028 53.3267 4.02352 52.7319 4.02352C52.1371 4.02352 51.5483 4.24028 51.0003 4.66101C50.4523 5.08174 49.9562 5.69791 49.5412 6.47313C49.1263 7.24835 48.801 8.16692 48.5845 9.17459C48.368 10.1823 48.2647 11.2586 48.2807 12.3401V12.4045C48.289 12.6932 48.2649 12.982 48.2099 13.2532C48.1549 13.5245 48.0701 13.7726 47.9607 13.9823C47.8513 14.192 47.7195 14.359 47.5735 14.4732C47.4274 14.5873 47.2701 14.6461 47.1112 14.6461C46.9522 14.6461 46.7949 14.5873 46.6489 14.4732C46.5028 14.359 46.3711 14.192 46.2617 13.9823C46.1522 13.7726 46.0674 13.5245 46.0124 13.2532C45.9574 12.982 45.9333 12.6932 45.9417 12.4045V12.3401C45.9417 9.06385 46.6572 5.92177 47.9309 3.6051C49.2047 1.28843 50.9322 -0.0130615 52.7335 -0.0130615C54.5348 -0.0130615 56.2623 1.28843 57.5361 3.6051C58.8098 5.92177 59.5253 9.06385 59.5253 12.3401V12.4045C59.5266 12.6857 59.4973 12.9646 59.439 13.225C59.3807 13.4855 59.2946 13.7224 59.1858 13.922C59.0769 14.1217 58.9473 14.2801 58.8046 14.3883C58.6619 14.4964 58.5088 14.5521 58.3542 14.5521Z" fill="white"/>
<path d="M48.7536 40.4116L41.032 32.301C40.9252 32.1885 40.8021 32.138 40.6792 32.1563C40.5562 32.1746 40.4393 32.2609 40.3441 32.4036C40.2488 32.5462 40.1799 32.7384 40.1464 32.9544C40.1129 33.1703 40.1166 33.3997 40.1568 33.6118L41.6433 41.5176C41.6884 41.7485 41.6884 42.0007 41.6433 42.2315L40.1568 50.1373C40.1166 50.3494 40.1129 50.5788 40.1464 50.7948C40.1799 51.0108 40.2488 51.203 40.3441 51.3456C40.4393 51.4883 40.5562 51.5745 40.6792 51.5928C40.8021 51.6112 40.9252 51.5607 41.032 51.4481L48.7536 43.3434C48.8937 43.1928 49.0097 42.9784 49.0904 42.7213C49.171 42.4643 49.2134 42.1734 49.2134 41.8775C49.2134 41.5816 49.171 41.2907 49.0904 41.0337C49.0097 40.7766 48.8937 40.5622 48.7536 40.4116Z" fill="white"/>
<path d="M37.5991 38.0544H36.1513C36.0386 38.0552 35.927 38.0155 35.8228 37.9376C35.7186 37.8598 35.6239 37.7452 35.544 37.6006C35.4642 37.456 35.4009 37.2841 35.3577 37.0949C35.3145 36.9057 35.2922 36.7028 35.2922 36.4979C35.2918 36.2925 35.3137 36.0889 35.3568 35.899C35.3998 35.7091 35.463 35.5366 35.5429 35.3913C35.6228 35.2461 35.7176 35.131 35.822 35.0528C35.9264 34.9746 36.0383 34.9347 36.1513 34.9354H37.5991C37.7117 34.9354 37.8233 34.9759 37.9273 35.0545C38.0314 35.1331 38.1259 35.2482 38.2054 35.3934C38.2849 35.5386 38.3479 35.7109 38.3907 35.9004C38.4335 36.0899 38.4553 36.293 38.4549 36.4979C38.4549 36.7023 38.4328 36.9047 38.3897 37.0935C38.3467 37.2824 38.2837 37.454 38.2042 37.5985C38.1248 37.7431 38.0304 37.8577 37.9266 37.936C37.8228 38.0142 37.7115 38.0544 37.5991 38.0544Z" fill="white"/>
<path d="M38.6447 43.4201H37.1969C37.0843 43.4209 36.9726 43.3812 36.8684 43.3033C36.7642 43.2254 36.6695 43.1109 36.5897 42.9663C36.5099 42.8217 36.4466 42.6498 36.4033 42.4606C36.3601 42.2714 36.3379 42.0685 36.3379 41.8635C36.3375 41.6581 36.3594 41.4546 36.4024 41.2647C36.4454 41.0748 36.5087 40.9023 36.5886 40.757C36.6684 40.6118 36.7633 40.4967 36.8677 40.4185C36.9721 40.3402 37.084 40.3004 37.1969 40.3011H38.6447C38.7574 40.3011 38.8689 40.3416 38.973 40.4202C39.077 40.4988 39.1715 40.6139 39.251 40.7591C39.3305 40.9043 39.3935 41.0766 39.4363 41.2661C39.4792 41.4556 39.501 41.6586 39.5006 41.8635C39.5006 42.2764 39.4104 42.6723 39.2499 42.9642C39.0894 43.2561 38.8717 43.4201 38.6447 43.4201Z" fill="white"/>
<path d="M37.0618 48.8343H35.614C35.3867 48.8343 35.1687 48.6705 35.0077 48.3787C34.8467 48.087 34.7558 47.6911 34.7549 47.2777C34.7549 47.0725 34.7772 46.8693 34.8203 46.6798C34.8635 46.4902 34.9268 46.318 35.0066 46.1729C35.0863 46.0278 35.181 45.9127 35.2852 45.8342C35.3895 45.7557 35.5012 45.7153 35.614 45.7153H37.0618C37.1746 45.7153 37.2863 45.7557 37.3905 45.8342C37.4947 45.9127 37.5894 46.0278 37.6692 46.1729C37.749 46.318 37.8123 46.4902 37.8554 46.6798C37.8986 46.8693 37.9208 47.0725 37.9208 47.2777C37.92 47.6911 37.8291 48.087 37.6681 48.3787C37.5071 48.6705 37.2891 48.8343 37.0618 48.8343Z" fill="white"/>
</g>
<path d="M20.3333 71L15.0572 57.161L10.674 71H0.405853L9.86227 43.5477L0 17.75H10.674L15.7472 31.0625L19.9681 17.75H30.2362L20.9421 44.6758L31.0073 71H20.3333Z" fill="white"/>
<path d="M96.1564 17.75V30.9873H88.5263V71H79.5164V30.9873H71.9675V17.75H96.1564Z" fill="white"/>
<path d="M117.432 62.9523H107.854L106.433 71H96.9767L107.488 17.75H117.878L128.349 71H118.852L117.432 62.9523ZM115.24 50.3919L112.643 35.5752L110.045 50.3919H115.24Z" fill="white"/>
<defs>
<clipPath id="clip0_408_2058">
<rect width="31.855" height="71" fill="white" transform="translate(34.7549)"/>
</clipPath>
</defs>
</svg>
