<svg width="129" height="71" viewBox="0 0 129 71" fill="none" xmlns="http://www.w3.org/2000/svg">
<g clip-path="url(#clip0_471_2032)">
<path d="M61.6521 18.0175H43.815C43.1691 18.0163 42.5456 18.4495 42.0646 19.2337C41.5835 20.0179 41.2788 21.0978 41.209 22.2659L41.0964 24.1092C41.037 25.0327 41.1272 25.9676 41.3558 26.7992C41.5844 27.6308 41.9415 28.3229 42.3833 28.7906L50.5683 37.3869C51.0039 37.8447 51.3656 38.5028 51.617 39.2953C51.8685 40.0878 52.0009 40.9866 52.0009 41.9016C52.0009 42.8166 51.8685 43.7155 51.617 44.5079C51.3656 45.3004 51.0039 45.9586 50.5683 46.4163L40.1569 57.3533C39.8019 57.7296 39.5004 58.2524 39.2768 58.8796C39.0533 59.5068 38.9139 60.2207 38.87 60.9639C38.8254 61.6862 38.8738 62.4175 39.0115 63.0998L39.9574 67.869C40.1393 68.7928 40.4737 69.5918 40.9149 70.1565C41.3561 70.7211 41.8825 71.0238 42.4219 71.0232H63.0419C63.5818 71.0233 64.1084 70.7205 64.5501 70.156C64.9917 69.5915 65.3268 68.7928 65.5097 67.869L66.4491 63.0822C66.584 62.3987 66.6324 61.6686 66.5907 60.9463L64.2517 22.2659C64.1813 21.1003 63.8773 20.0228 63.3977 19.2391C62.9182 18.4554 62.2967 18.0205 61.6521 18.0175Z" fill="#D32F2F"/>
<path d="M58.3541 14.5521C58.1995 14.5521 58.0464 14.4964 57.9037 14.3883C57.761 14.2801 57.6314 14.1217 57.5226 13.922C57.4137 13.7224 57.3276 13.4855 57.2693 13.225C57.2111 12.9646 57.1817 12.6857 57.183 12.4045V12.3401C57.199 11.2586 57.0957 10.1823 56.8792 9.17459C56.6627 8.16692 56.3373 7.24835 55.9224 6.47313C55.5075 5.69791 55.0114 5.08174 54.4634 4.66101C53.9154 4.24028 53.3266 4.02352 52.7318 4.02352C52.1369 4.02352 51.5481 4.24028 51.0001 4.66101C50.4521 5.08174 49.956 5.69791 49.5411 6.47313C49.1262 7.24835 48.8009 8.16692 48.5844 9.17459C48.3679 10.1823 48.2646 11.2586 48.2806 12.3401V12.4045C48.2889 12.6932 48.2648 12.982 48.2098 13.2532C48.1548 13.5245 48.07 13.7726 47.9606 13.9823C47.8512 14.192 47.7194 14.359 47.5734 14.4732C47.4273 14.5873 47.27 14.6461 47.1111 14.6461C46.9521 14.6461 46.7948 14.5873 46.6487 14.4732C46.5027 14.359 46.3709 14.192 46.2615 13.9823C46.1521 13.7726 46.0673 13.5245 46.0123 13.2532C45.9573 12.982 45.9332 12.6932 45.9416 12.4045V12.3401C45.9416 9.06385 46.6571 5.92177 47.9308 3.6051C49.2045 1.28843 50.9321 -0.0130615 52.7334 -0.0130615C54.5347 -0.0130615 56.2622 1.28843 57.5359 3.6051C58.8096 5.92177 59.5252 9.06385 59.5252 12.3401V12.4045C59.5265 12.6857 59.4971 12.9646 59.4389 13.225C59.3806 13.4855 59.2945 13.7224 59.1856 13.922C59.0768 14.1217 58.9472 14.2801 58.8045 14.3883C58.6618 14.4964 58.5087 14.5521 58.3541 14.5521Z" fill="#D32F2F"/>
<path d="M48.7535 40.4116L41.0319 32.301C40.9252 32.1885 40.8021 32.138 40.6791 32.1563C40.5562 32.1746 40.4392 32.2609 40.344 32.4036C40.2488 32.5462 40.1798 32.7384 40.1463 32.9544C40.1129 33.1703 40.1165 33.3997 40.1568 33.6118L41.6432 41.5176C41.6883 41.7485 41.6883 42.0007 41.6432 42.2315L40.1568 50.1373C40.1165 50.3494 40.1129 50.5788 40.1463 50.7948C40.1798 51.0108 40.2488 51.203 40.344 51.3456C40.4392 51.4883 40.5562 51.5745 40.6791 51.5928C40.8021 51.6112 40.9252 51.5607 41.0319 51.4481L48.7535 43.3434C48.8936 43.1928 49.0097 42.9784 49.0903 42.7213C49.1709 42.4643 49.2133 42.1734 49.2133 41.8775C49.2133 41.5816 49.1709 41.2907 49.0903 41.0337C49.0097 40.7766 48.8936 40.5622 48.7535 40.4116Z" fill="#D32F2F"/>
<path d="M37.5991 38.0544H36.1513C36.0386 38.0552 35.927 38.0155 35.8228 37.9376C35.7186 37.8598 35.6239 37.7452 35.544 37.6006C35.4642 37.456 35.4009 37.2841 35.3577 37.0949C35.3145 36.9057 35.2922 36.7028 35.2922 36.4979C35.2918 36.2925 35.3137 36.0889 35.3568 35.899C35.3998 35.7091 35.463 35.5366 35.5429 35.3913C35.6228 35.2461 35.7176 35.131 35.822 35.0528C35.9264 34.9746 36.0383 34.9347 36.1513 34.9354H37.5991C37.7117 34.9354 37.8233 34.9759 37.9273 35.0545C38.0314 35.1331 38.1259 35.2482 38.2054 35.3934C38.2849 35.5386 38.3479 35.7109 38.3907 35.9004C38.4335 36.0899 38.4553 36.293 38.4549 36.4979C38.4549 36.7023 38.4328 36.9047 38.3897 37.0935C38.3467 37.2824 38.2837 37.454 38.2042 37.5985C38.1248 37.7431 38.0304 37.8577 37.9266 37.936C37.8228 38.0142 37.7115 38.0544 37.5991 38.0544Z" fill="#D32F2F"/>
<path d="M38.6446 43.4201H37.1968C37.0841 43.4209 36.9725 43.3812 36.8683 43.3033C36.7641 43.2254 36.6694 43.1109 36.5896 42.9663C36.5098 42.8217 36.4464 42.6498 36.4032 42.4606C36.36 42.2714 36.3378 42.0685 36.3378 41.8635C36.3373 41.6581 36.3593 41.4546 36.4023 41.2647C36.4453 41.0748 36.5086 40.9023 36.5884 40.757C36.6683 40.6118 36.7632 40.4967 36.8676 40.4185C36.972 40.3402 37.0839 40.3004 37.1968 40.3011H38.6446C38.7573 40.3011 38.8688 40.3416 38.9729 40.4202C39.0769 40.4988 39.1714 40.6139 39.2509 40.7591C39.3304 40.9043 39.3934 41.0766 39.4362 41.2661C39.479 41.4556 39.5009 41.6586 39.5004 41.8635C39.5004 42.2764 39.4103 42.6723 39.2498 42.9642C39.0893 43.2561 38.8716 43.4201 38.6446 43.4201Z" fill="#D32F2F"/>
<path d="M37.0617 48.8343H35.6139C35.3866 48.8343 35.1686 48.6705 35.0076 48.3787C34.8466 48.087 34.7557 47.6911 34.7549 47.2777C34.7549 47.0725 34.7771 46.8693 34.8203 46.6798C34.8634 46.4902 34.9267 46.318 35.0065 46.1729C35.0863 46.0278 35.181 45.9127 35.2852 45.8342C35.3894 45.7557 35.5011 45.7153 35.6139 45.7153H37.0617C37.1745 45.7153 37.2862 45.7557 37.3905 45.8342C37.4947 45.9127 37.5894 46.0278 37.6692 46.1729C37.7489 46.318 37.8122 46.4902 37.8554 46.6798C37.8985 46.8693 37.9208 47.0725 37.9208 47.2777C37.9199 47.6911 37.829 48.087 37.668 48.3787C37.507 48.6705 37.289 48.8343 37.0617 48.8343Z" fill="#D32F2F"/>
</g>
<path d="M20.3333 71L15.0572 57.161L10.674 71H0.405853L9.86227 43.5477L0 17.75H10.674L15.7472 31.0625L19.9681 17.75H30.2362L20.9421 44.6758L31.0073 71H20.3333Z" fill="#D32F2F"/>
<path d="M96.1564 17.75V30.9873H88.5263V71H79.5164V30.9873H71.9675V17.75H96.1564Z" fill="#D32F2F"/>
<path d="M117.432 62.9523H107.854L106.433 71H96.9767L107.488 17.75H117.878L128.349 71H118.852L117.432 62.9523ZM115.24 50.3919L112.643 35.5752L110.045 50.3919H115.24Z" fill="#D32F2F"/>
<defs>
<clipPath id="clip0_471_2032">
<rect width="31.855" height="71" fill="white" transform="translate(34.7549)"/>
</clipPath>
</defs>
</svg>
