<svg width="26" height="26" viewBox="0 0 26 26" fill="none" xmlns="http://www.w3.org/2000/svg">
<g clip-path="url(#clip0_523_6628)">
<path d="M11.5359 21.6045L4.4355 14.3655C4.25135 14.178 4.10597 13.956 4.00767 13.7122C3.90937 13.4685 3.86009 13.2077 3.86263 12.9449C3.86517 12.6821 3.91948 12.4223 4.02248 12.1805C4.12547 11.9387 4.27511 11.7196 4.46285 11.5356L13.1255 3.02896L23.125 3.12561L23.0284 13.1251L14.3557 21.6317C13.9774 22.0006 13.4685 22.2048 12.9402 22.1997C12.4118 22.1945 11.907 21.9806 11.5359 21.6045V21.6045Z" stroke="#D32F2F" stroke-width="2" stroke-linecap="round" stroke-linejoin="round"/>
<path d="M18.0771 8.07703L18.0771 8.08703" stroke="#D32F2F" stroke-width="2" stroke-linecap="round" stroke-linejoin="round"/>
</g>
<defs>
<clipPath id="clip0_523_6628">
<rect width="24" height="24" fill="white" transform="translate(25.1445 1.14502) rotate(90.5538)"/>
</clipPath>
</defs>
</svg>
