<svg width="24" height="24" viewBox="0 0 24 24" fill="none" xmlns="http://www.w3.org/2000/svg">
<path d="M6 20.9998C7.10457 20.9998 8 20.1043 8 18.9998C8 17.8952 7.10457 16.9998 6 16.9998C4.89543 16.9998 4 17.8952 4 18.9998C4 20.1043 4.89543 20.9998 6 20.9998Z" stroke="black" stroke-width="1.5" stroke-linecap="round" stroke-linejoin="round"/>
<path d="M17 20.9998C18.1046 20.9998 19 20.1043 19 18.9998C19 17.8952 18.1046 16.9998 17 16.9998C15.8954 16.9998 15 17.8952 15 18.9998C15 20.1043 15.8954 20.9998 17 20.9998Z" stroke="black" stroke-width="1.5" stroke-linecap="round" stroke-linejoin="round"/>
<path d="M17 17H6V3H4" stroke="black" stroke-width="1.5" stroke-linecap="round" stroke-linejoin="round"/>
<path d="M6 4.99976L20 5.99976L19 12.9998H6" stroke="black" stroke-width="1.5" stroke-linecap="round" stroke-linejoin="round"/>
</svg>
