<svg width="24" height="24" viewBox="0 0 24 24" fill="none" xmlns="http://www.w3.org/2000/svg">
<path d="M4.62127 6.51493C4.80316 5.78737 4.8941 5.42359 5.16536 5.21179C5.43663 5 5.8116 5 6.56155 5H17.4384C18.1884 5 18.5634 5 18.8346 5.21179C19.1059 5.42359 19.1968 5.78737 19.3787 6.51493L20.5823 11.3294C20.6792 11.7168 20.7276 11.9104 20.7169 12.0678C20.6892 12.4757 20.416 12.8257 20.0269 12.9515C19.8769 13 19.6726 13 19.2641 13V13C18.7309 13 18.4644 13 18.2405 12.9478C17.6133 12.8017 17.0948 12.3625 16.8475 11.7678C16.7593 11.5556 16.7164 11.2986 16.6308 10.7846V10.7846C16.6068 10.6408 16.5948 10.5689 16.5812 10.5499C16.5413 10.4944 16.4587 10.4944 16.4188 10.5499C16.4052 10.5689 16.3932 10.6408 16.3692 10.7846L16.2877 11.2738C16.2791 11.3257 16.2747 11.3516 16.2704 11.3743C16.0939 12.3005 15.2946 12.9777 14.352 12.9995C14.3289 13 14.3026 13 14.25 13V13C14.1974 13 14.1711 13 14.148 12.9995C13.2054 12.9777 12.4061 12.3005 12.2296 11.3743C12.2253 11.3516 12.2209 11.3257 12.2123 11.2738L12.1308 10.7846C12.1068 10.6408 12.0948 10.5689 12.0812 10.5499C12.0413 10.4944 11.9587 10.4944 11.9188 10.5499C11.9052 10.5689 11.8932 10.6408 11.8692 10.7846L11.7877 11.2738C11.7791 11.3257 11.7747 11.3516 11.7704 11.3743C11.5939 12.3005 10.7946 12.9777 9.85199 12.9995C9.82887 13 9.80258 13 9.75 13V13C9.69742 13 9.67113 13 9.64801 12.9995C8.70541 12.9777 7.90606 12.3005 7.7296 11.3743C7.72527 11.3516 7.72095 11.3257 7.7123 11.2738L7.63076 10.7846C7.60679 10.6408 7.59481 10.5689 7.58122 10.5499C7.54132 10.4944 7.45868 10.4944 7.41878 10.5499C7.40519 10.5689 7.39321 10.6408 7.36924 10.7846V10.7846C7.28357 11.2986 7.24074 11.5556 7.15249 11.7678C6.90524 12.3625 6.38675 12.8017 5.75951 12.9478C5.53563 13 5.26905 13 4.73591 13V13C4.32737 13 4.12309 13 3.97306 12.9515C3.58403 12.8257 3.31078 12.4757 3.28307 12.0678C3.27239 11.9104 3.32081 11.7168 3.41765 11.3294L4.62127 6.51493Z" fill="#D32F2F"/>
<path fill-rule="evenodd" clip-rule="evenodd" d="M5.01747 13.5C5 13.9209 5 14.415 5 14.9998V20.9998C5 21.9426 5 22.414 5.29289 22.7069C5.58579 22.9998 6.05719 22.9998 7 22.9998H10V18.9998C10 18.4475 10.4477 17.9998 11 17.9998H13C13.5523 17.9998 14 18.4475 14 18.9998V22.9998H17C17.9428 22.9998 18.4142 22.9998 18.7071 22.7069C19 22.414 19 21.9426 19 20.9998V14.9998C19 14.415 19 13.9209 18.9825 13.5C18.6177 13.4991 18.2446 13.4888 17.9002 13.4085C17.3808 13.2875 16.904 13.0517 16.5 12.7266C15.9159 13.1967 15.1803 13.4805 14.3867 13.4989C14.3456 13.4998 14.3022 13.4998 14.2609 13.4998H14.2608L14.25 13.4998L14.2392 13.4998H14.2391C14.1978 13.4998 14.1544 13.4998 14.1133 13.4989C13.3197 13.4805 12.5841 13.1967 12 12.7266C11.4159 13.1967 10.6803 13.4805 9.88668 13.4989C9.84555 13.4998 9.80225 13.4998 9.76086 13.4998H9.76077L9.75 13.4998L9.73923 13.4998H9.73914C9.69775 13.4998 9.65445 13.4998 9.61332 13.4989C8.8197 13.4805 8.08409 13.1967 7.5 12.7266C7.09596 13.0517 6.6192 13.2875 6.09984 13.4085C5.75542 13.4888 5.38227 13.4991 5.01747 13.5Z" fill="#D32F2F"/>
</svg>
