<svg width="40" height="40" viewBox="0 0 40 40" fill="none" xmlns="http://www.w3.org/2000/svg">
<path d="M32.7471 8.64759C27.3417 8.64759 21.7398 3.63711 21.6844 3.58691C21.312 3.24935 20.7445 3.24935 20.3723 3.58691C20.3165 3.6375 14.7294 8.64759 9.30957 8.64759C8.77025 8.64759 8.33301 9.08483 8.33301 9.62415V21.3193C8.33301 30.7936 15.3796 34.5794 20.68 36.6029C20.7922 36.6457 20.9102 36.6671 21.0283 36.6671C21.1464 36.6671 21.2645 36.6456 21.3766 36.6029C28.8085 33.7656 33.7236 29.3399 33.7236 21.3193V9.62415C33.7236 9.08483 33.2864 8.64759 32.7471 8.64759Z" fill="url(#paint0_linear_129_912)"/>
<path d="M21.0283 13.1638C17.259 13.1638 14.1924 16.2304 14.1924 19.9998C14.1924 23.7691 17.259 26.8357 21.0283 26.8357C24.7977 26.8357 27.8643 23.7691 27.8643 19.9998C27.8643 16.2304 24.7977 13.1638 21.0283 13.1638ZM23.6719 19.7137L20.7423 22.6434C20.5516 22.8341 20.3017 22.9294 20.0518 22.9294C19.8018 22.9294 19.5519 22.8341 19.3613 22.6434L18.3847 21.6668C18.0033 21.2854 18.0033 20.6671 18.3847 20.2858C18.766 19.9044 19.3844 19.9044 19.7658 20.2858L20.0518 20.5718L22.291 18.3326C22.6723 17.9513 23.2907 17.9513 23.6721 18.3326C24.0534 18.714 24.0534 19.3323 23.6719 19.7137Z" fill="url(#paint1_linear_129_912)"/>
<defs>
<linearGradient id="paint0_linear_129_912" x1="8.33301" y1="3.38834" x2="54.2137" y2="30.936" gradientUnits="userSpaceOnUse">
<stop stop-color="#FF6868"/>
<stop offset="0.855653" stop-color="#DD0C00"/>
</linearGradient>
<linearGradient id="paint1_linear_129_912" x1="27.392" y1="25.5386" x2="3.41719" y2="9.14156" gradientUnits="userSpaceOnUse">
<stop stop-color="white"/>
<stop offset="1" stop-color="#FFD0CD"/>
</linearGradient>
</defs>
</svg>
