<svg width="579" height="491" viewBox="0 0 579 491" fill="none" xmlns="http://www.w3.org/2000/svg">
<path d="M496.159 279.27C496.216 319.465 483.689 358.676 460.323 391.446C457.06 396.045 453.554 400.468 449.952 404.757C433.134 424.559 412.493 440.794 389.255 452.497C366.017 464.201 340.656 471.135 314.676 472.887C310.262 473.184 305.821 473.332 301.327 473.332C298.267 473.332 295.207 473.265 292.175 473.13C254.072 471.345 217.334 458.458 186.516 436.068C155.697 413.678 132.155 382.768 118.809 347.174C105.463 311.579 102.899 272.865 111.436 235.833C119.973 198.8 139.235 165.078 166.834 138.85C194.433 112.621 229.154 95.0391 266.691 88.2844C304.228 81.5296 342.929 85.8993 377.996 100.851C413.063 115.804 442.953 140.68 463.958 172.397C484.963 204.113 496.16 241.274 496.159 279.27Z" fill="#C40000"/>
<g style="mix-blend-mode:multiply" opacity="0.7">
<path d="M452.944 322.129C453.001 353.452 443.242 384.011 425.028 409.545C422.474 413.141 419.766 416.602 416.905 419.929C403.798 435.357 387.714 448.005 369.606 457.124C351.499 466.242 331.737 471.644 311.494 473.009C308.055 473.252 304.589 473.36 301.096 473.36C298.7 473.36 296.331 473.36 293.961 473.198C264.272 471.801 235.648 461.755 211.638 444.304C187.627 426.854 169.287 402.767 158.892 375.03C148.496 347.294 146.502 317.128 153.157 288.273C159.812 259.418 174.824 233.144 196.33 212.708C217.836 192.272 244.891 178.574 274.14 173.312C303.389 168.05 333.545 171.456 360.869 183.107C388.193 194.758 411.482 214.142 427.85 238.855C444.218 263.567 452.943 292.522 452.944 322.129Z" fill="#DC281E"/>
</g>
<g clip-path="url(#clip0_78_274)">
<path d="M90.5249 399.555L21.5294 399.353L14.1261 474.85L83.1216 475.036L90.5249 399.555Z" fill="#E59B53"/>
<path d="M190.764 293.362L93.5849 293.093L93.2876 398.661L190.466 398.93L190.764 293.362Z" fill="#E5AD5C"/>
<path d="M93.435 360.558L133.753 368.844L162.516 293.245L93.6222 293.059L93.435 360.558Z" fill="#EDBC6E"/>
<path d="M285.303 384.746L137.322 384.336L137.066 475.223L285.047 475.633L285.303 384.746Z" fill="#E59B53"/>
<path d="M47.7046 399.438L4.69728 399.32L0 474.8L43.0073 474.918L47.7046 399.438Z" fill="#EDBC6E"/>
<path d="M152.912 384.381L55.7337 384.112L55.4777 474.998L152.656 475.267L152.912 384.381Z" fill="#E5AD5C"/>
<path d="M55.5502 462.143L152.883 413.139L152.951 384.334L55.7715 384.081L55.5502 462.143Z" fill="#EDBC6E"/>
<path d="M112.911 302.107L97.5765 302.064L97.544 313.59L112.878 313.632L112.911 302.107Z" fill="#F4DAB5"/>
<path d="M145.377 388.764L119.338 388.692L119.306 400.217L145.345 400.289L145.377 388.764Z" fill="#F4DAB5"/>
<path d="M23.3669 402.323L8.32205 402.273L7.64128 410.187L22.6862 410.221L23.3669 402.323Z" fill="#F4DAB5"/>
<path d="M144.727 402.16L129.393 402.117L129.381 406.117L144.716 406.159L144.727 402.16Z" fill="#F4DAB5"/>
<path d="M284.582 362.892L176.664 362.593L176.347 474.91L284.265 475.209L284.582 362.892Z" fill="#E5AD5C"/>
<path d="M176.437 459.039L284.509 398.425L284.611 362.854L176.692 362.55L176.437 459.039Z" fill="#EDBC6E"/>
<path d="M276.193 368.303L247.277 368.223L247.237 382.465L276.152 382.545L276.193 368.303Z" fill="#F4DAB5"/>
<path d="M275.482 384.872L258.446 384.825L258.432 389.769L275.468 389.816L275.482 384.872Z" fill="#F4DAB5"/>
</g>
<g clip-path="url(#clip1_78_274)">
<path d="M375.631 210.705L327.798 270.092L390.733 320.639L438.565 261.252L375.631 210.705Z" fill="#EDBC6E"/>
<path d="M388.512 221.102L352.767 290.208L390.78 320.732L438.617 261.363L388.512 221.102Z" fill="#F9C882"/>
<path d="M328.21 269.548L308.421 294.117L371.356 344.664L391.145 320.095L328.21 269.548Z" fill="#E59B53"/>
<path d="M357.651 293.276L328.272 269.657L308.478 294.226L334.766 315.343L357.651 293.276Z" fill="#E28D47"/>
<path d="M395.006 287.997L381.78 303.871L391.677 312.694L404.903 296.82L395.006 287.997Z" fill="#FFE0BB"/>
<path d="M369.962 229.23L376.786 220.754L383.756 226.344L385.786 223.604L376.42 216.078L367.365 227.294L369.962 229.23Z" fill="#FFE0BB"/>
<path d="M377.28 224.718L366.158 238.547L368.17 240.264L379.292 226.454L377.28 224.718Z" fill="#FFE0BB"/>
<path d="M578.437 373.622L503.9 357.244L486.543 436.01L561.08 452.388L578.437 373.622Z" fill="#EDBC6E"/>
<path d="M574.848 389.71L496.992 388.468L486.491 436.054L561.037 452.44L574.848 389.71Z" fill="#F9C882"/>
<path d="M504.542 357.371L473.705 350.595L456.348 429.362L487.185 436.138L504.542 357.371Z" fill="#E59B53"/>
<path d="M496.406 394.204L504.51 357.432L473.668 350.654L466.423 383.536L496.406 394.204Z" fill="#E28D47"/>
<path d="M517.736 425.276L497.613 420.49L494.101 433.278L514.224 438.045L517.736 425.276Z" fill="#FFE0BB"/>
<path d="M559.317 376.74L569.964 379.078L568.024 387.792L571.39 388.395L573.988 376.667L559.902 373.561L559.317 376.74Z" fill="#FFE0BB"/>
<path d="M566.616 381.27L549.274 377.489L548.615 380.046L565.957 383.846L566.616 381.27Z" fill="#FFE0BB"/>
</g>
<path d="M397.653 474.318C397.004 475.936 393.741 487.965 414.956 487.318C436.17 486.671 475.649 480.494 475.649 480.494C475.649 480.494 448.233 384.596 445.62 384.596C443.007 384.596 397.653 474.318 397.653 474.318Z" fill="#18203D"/>
<path d="M318.967 185.314L315.285 187.755L308.191 192.475L307.839 192.933L293.637 211.544C293.637 211.544 284.972 174.094 279.029 152.368C275.414 139.273 272.463 128.7 272.26 128.484C269.522 126.481 267.162 124.011 265.287 121.188C264.675 120.263 264.157 119.278 263.744 118.249C262.778 115.879 261.977 113.446 261.348 110.966C260.413 107.623 259.761 104.209 259.398 100.757C259.493 99.139 281.994 73.9609 284.39 75.1341C285.744 75.7545 287.978 79.1799 290.036 82.929C291.619 85.765 292.938 88.7399 293.975 91.8162C295.058 95.3495 295.099 104.196 294.734 110.696C294.678 113.054 294.433 115.404 294.002 117.723C293.353 119.975 293.001 120.797 292.852 121.229C292.8 121.339 292.768 121.458 292.757 121.58C292.757 121.741 293.122 122.928 293.718 124.735C295.465 130.022 299.418 141.08 303.98 151.424C305.903 155.78 307.568 159.367 309.084 162.59C312.807 170.466 315.596 176.13 318.967 185.314Z" fill="#DC8865"/>
<path opacity="0.5" d="M318.967 185.314L315.285 187.755C304.562 165.301 296.331 134.917 293.718 124.695C295.464 129.982 299.417 141.04 303.98 151.384C305.902 155.74 307.568 159.327 309.084 162.55C312.807 170.466 315.596 176.13 318.967 185.314Z" fill="white"/>
<path d="M307.839 192.934L293.637 211.545C293.637 211.545 284.972 174.094 279.029 152.369C275.414 139.274 272.463 128.701 272.26 128.485C269.522 126.481 267.162 124.011 265.287 121.189C264.675 120.264 264.157 119.279 263.744 118.249C268.547 120.821 273.668 122.757 278.975 124.008C278.975 124.008 299.648 180.244 303.994 189.347C304.916 190.876 306.247 192.118 307.839 192.934Z" fill="#D25C2C"/>
<path d="M259.587 101.73C259.587 101.73 264.637 119.032 275.4 115.647C286.163 112.262 293.122 96.5242 288.045 91.6558C282.968 86.7874 259.587 101.73 259.587 101.73Z" fill="#AD402C"/>
<path d="M271.528 109.943C271.55 110.974 271.168 111.974 270.463 112.729C269.758 113.484 268.785 113.936 267.751 113.989C266.641 113.827 265.219 112.384 264.095 110.954C263.703 110.469 263.351 109.97 263.066 109.606C261.19 106.591 259.728 103.339 258.72 99.9362C258.634 99.1819 258.748 98.4181 259.052 97.722C259.357 97.0258 259.84 96.422 260.453 95.9713C261.236 95.2814 262.251 94.9106 263.297 94.9329C263.604 94.9389 263.907 95.0029 264.19 95.1217C264.989 95.4858 267.791 102.566 268.563 103.968C269.335 105.371 271.217 107.825 271.528 109.943Z" fill="#DC8865"/>
<path d="M271.529 109.942C271.551 110.973 271.169 111.973 270.464 112.728C269.759 113.483 268.786 113.935 267.752 113.988C266.641 113.826 265.22 112.383 264.096 110.953C269.024 108.768 268.577 106.907 266.899 103.469C265.545 100.771 263.974 96.6447 263.297 94.8645C263.605 94.8705 263.908 94.9345 264.191 95.0533C264.99 95.4174 267.792 102.498 268.564 103.9C269.336 105.303 271.217 107.824 271.529 109.942Z" fill="#D25C2C"/>
<path d="M277.905 105.681C278.064 106.604 277.908 107.553 277.461 108.377C277.015 109.201 276.303 109.852 275.441 110.225C273.64 111.008 272.056 110.225 270.634 107.987C270.458 107.73 270.309 107.488 270.147 107.231C268.937 105.456 267.895 103.574 267.033 101.608C266.018 99.2208 263.892 94.6626 263.581 93.2196C263.467 92.3183 263.566 91.4031 263.869 90.5464C264.173 89.6897 264.672 88.9151 265.327 88.2838C266.381 87.3907 267.697 86.8609 269.077 86.7734C269.505 86.7493 269.931 86.8426 270.309 87.0431C270.81 87.3937 272.367 93.6647 273.708 96.7394C275.048 99.8142 277.444 104.049 277.905 105.681Z" fill="#DC8865"/>
<path d="M277.905 105.681C278.065 106.604 277.909 107.553 277.462 108.377C277.015 109.201 276.304 109.852 275.441 110.225C273.641 111.008 272.057 110.225 270.635 107.987C270.459 107.73 270.31 107.488 270.148 107.231C273.871 106.881 275.265 103.766 274.94 102.876C273.56 100.162 272.353 97.3651 271.326 94.5008C270.432 91.6957 269.511 88.3782 269.078 86.7734C269.506 86.7493 269.932 86.8426 270.31 87.0431C270.811 87.3937 272.368 93.6647 273.708 96.7394C275.049 99.8142 277.445 104.049 277.905 105.681Z" fill="#D25C2C"/>
<path d="M283.781 99.4231C283.889 100.354 283.681 101.294 283.19 102.093C282.699 102.892 281.954 103.505 281.073 103.833C279.232 104.521 277.688 103.59 276.402 101.325C276.145 100.88 275.888 100.435 275.657 99.976C274.668 98.3066 273.835 96.5506 273.166 94.73C272.03 91.9272 271.036 89.069 270.188 86.1664C270.127 85.2599 270.279 84.3517 270.631 83.5137C270.984 82.6757 271.527 81.931 272.219 81.3385C273.229 80.5729 274.434 80.1056 275.698 79.9899C276.24 79.9221 276.79 80.0411 277.255 80.327C277.742 80.7181 278.934 87.07 280.112 90.1987C281.29 93.3275 283.402 97.7778 283.781 99.4231Z" fill="#DC8865"/>
<path d="M283.78 99.4229C283.888 100.354 283.68 101.294 283.19 102.093C282.699 102.892 281.954 103.505 281.073 103.833C279.231 104.521 277.688 103.59 276.402 101.324C276.145 100.879 275.887 100.434 275.657 99.9758C279.15 99.342 281.005 97.1842 280.667 96.1054C280.545 95.7008 278.69 91.8034 277.593 88.351C276.808 85.6189 276.175 82.8455 275.698 80.0437C276.24 79.9759 276.79 80.0948 277.255 80.3808C277.742 80.7719 278.934 87.1238 280.111 90.2525C281.289 93.3812 283.401 97.7776 283.78 99.4229Z" fill="#D25C2C"/>
<path d="M289.345 92.8679C289.345 94.621 288.221 95.4572 286.556 96.1315C284.891 96.8057 282.955 97.062 281.249 93.9198C281.148 93.7502 281.058 93.5745 280.978 93.3938C279.112 89.0516 277.688 84.5336 276.727 79.9079C276.707 78.9276 276.988 77.9645 277.532 77.1475C278.077 76.3305 278.859 75.6986 279.773 75.3362C282.264 74.136 284.092 74.7024 284.485 75.2148C285.703 76.8332 286.8 82.3489 287.788 85.3832C288.724 87.7737 289.25 90.3038 289.345 92.8679Z" fill="#DC8865"/>
<path d="M289.345 92.8697C289.345 94.6229 288.221 95.459 286.556 96.1333C284.891 96.8076 282.955 97.0638 281.249 93.9216C283.848 94.2453 284.444 93.1394 285.527 91.8043C286.61 90.4692 287.111 87.2326 285.866 83.9825C285.025 81.1197 284.57 78.1584 284.512 75.1762C285.73 76.7945 286.827 82.3103 287.815 85.3446C288.746 87.7495 289.263 90.2935 289.345 92.8697Z" fill="#D25C2C"/>
<path d="M342.646 35.1222L332.655 66.0049L319.117 107.811C299.592 100.319 279.459 94.5078 258.938 90.4413C239.824 86.7295 220.053 88.3489 201.805 95.1209L210.294 21.5284L212.731 0.368981C214.274 0.234122 283.402 -5.65922 342.646 35.1222Z" fill="#D6D2D1"/>
<path d="M225.999 21.8528L221.382 59.2222" stroke="#4C6E90" stroke-width="7.71196" stroke-linecap="round" stroke-linejoin="round"/>
<g style="mix-blend-mode:multiply" opacity="0.3">
<path d="M263.406 78.9921L276.944 16.0669C268.749 13.8059 260.381 12.2227 251.925 11.3333L241.013 76.686C248.536 76.7085 256.037 77.481 263.406 78.9921Z" fill="#4A6C8F"/>
</g>
<path d="M301.218 23.7939L284.999 84.3321" stroke="#4C6E90" stroke-width="7.71196" stroke-linecap="round" stroke-linejoin="round"/>
<path d="M312.144 69.8357L305.199 91.2917" stroke="#4C6E90" stroke-width="7.71196" stroke-linecap="round" stroke-linejoin="round"/>
<path d="M324.031 33.1264L318.168 51.238" stroke="#4C6E90" stroke-width="7.71196" stroke-linecap="round" stroke-linejoin="round"/>
<g style="mix-blend-mode:multiply" opacity="0.3">
<path d="M332.655 66.0043L319.116 107.811C319.116 107.811 310.506 104.358 297.333 100.259C294.382 99.328 291.186 98.384 287.856 97.4265C279.178 94.9451 269.281 92.4771 258.938 90.5217C239.825 86.8098 220.055 88.4245 201.805 95.1878L210.294 21.5278C235.868 70.2928 298.822 79.1666 332.655 66.0043Z" fill="#4A6C8F"/>
</g>
<g style="mix-blend-mode:multiply" opacity="0.3">
<path d="M297.374 100.191C294.422 99.2607 291.227 98.3167 287.897 97.3592C287.301 96.2129 285.189 91.8434 285.527 88.863C285.752 87.0934 286.59 85.4575 287.897 84.2374C288.112 84.0338 288.348 83.853 288.601 83.6979C288.827 83.5406 289.096 83.4559 289.372 83.4552C290.09 83.617 290.983 86.7053 292.649 89.5643C293.61 91.2231 294.896 93.1381 295.898 94.7429C296.486 95.5842 296.976 96.489 297.36 97.4401C297.608 98.3399 297.612 99.289 297.374 100.191Z" fill="#4A6C8F"/>
</g>
<path opacity="0.5" d="M342.646 35.1221C282.305 2.60764 214.355 0.422924 212.757 0.368981C214.274 0.234122 283.401 -5.65921 342.646 35.1221Z" fill="white"/>
<path d="M298.524 101.231C298.091 103.645 298.172 108.486 297.075 112.478C296.412 114.646 295.504 116.732 294.367 118.695C293.718 119.814 293.163 120.704 292.878 121.176L292.648 121.487L286.786 124.184L286.15 124.48C286.15 124.48 280.166 117.98 281.411 110.212C282.187 106.556 284.357 103.341 287.463 101.244L289.494 96.9152C289.494 96.9152 286.502 91.5209 286.962 88.1359C287.169 86.3375 288.008 84.67 289.331 83.4293C289.545 83.2294 289.776 83.0489 290.022 82.8899C290.252 82.7298 290.526 82.645 290.807 82.6471C291.524 82.809 292.418 85.8972 294.083 88.7562C295.044 90.415 296.331 92.33 297.319 93.9348C297.91 94.7766 298.405 95.6812 298.795 96.632C299.201 98.075 298.943 98.8032 298.524 101.231Z" fill="#DC8865"/>
<path opacity="0.5" d="M298.524 101.229C298.091 103.643 298.172 108.485 297.076 112.477C296.413 114.645 295.505 116.73 294.368 118.694C296.372 111.371 297.942 100.191 297.496 97.9657C296.995 95.5248 295.857 95.2686 293.082 90.3327C290.74 86.1791 291.038 84.0348 289.359 83.4414C289.572 83.2415 289.804 83.061 290.049 82.902C290.279 82.742 290.554 82.6571 290.835 82.6592C291.552 82.8211 292.446 85.9094 294.111 88.7684C295.072 90.4271 296.358 92.3421 297.347 93.947C297.937 94.7887 298.432 95.6934 298.822 96.6441C299.201 98.0736 298.944 98.8019 298.524 101.229Z" fill="white"/>
<path d="M367.34 208.403L366.84 212.449L362.778 243.844L359.217 271.045C359.217 271.045 356.835 271.045 345.313 268.644C333.792 266.244 317.668 268.644 307.013 263.452C296.358 258.26 284.606 252.394 284.606 252.394C284.002 243.382 284.456 234.33 285.96 225.422C287.07 218.418 289.1 211.589 291.999 205.112C297.305 193.529 305.99 183.806 316.923 177.21C318.466 176.293 319.414 175.861 319.414 175.861L326.806 193.393C326.806 193.393 343.052 195.915 345.895 195.915C348.738 195.915 352.11 199.961 352.11 199.961L360.977 202.065L367.34 208.403Z" fill="#D6D2D1"/>
<path d="M367.341 208.403L366.84 212.449C361.181 209.145 351.948 204.021 349.064 204.236C344.935 204.56 334.171 215.389 333.833 215.713C333.495 216.037 343.621 200.77 343.31 200.77C342.999 200.77 334.402 197.305 329.067 197.736C323.733 198.168 309.274 206.947 309.274 206.515C309.274 206.084 324.166 196.212 324.166 196.212C324.166 196.212 319.699 184.628 316.991 177.332C318.534 176.415 319.482 175.983 319.482 175.983L326.874 193.515C326.874 193.515 343.12 196.037 345.963 196.037C348.807 196.037 352.178 200.083 352.178 200.083L361.045 202.186L367.341 208.403Z" fill="white"/>
<g style="mix-blend-mode:multiply" opacity="0.3">
<path d="M362.751 243.79L359.217 271.045C359.217 271.045 356.834 271.045 345.313 268.645C333.792 266.244 317.668 268.645 307.013 263.453C296.358 258.261 284.606 252.394 284.606 252.394C284.002 243.382 284.456 234.33 285.96 225.422C291.376 232.165 298.781 238.463 307.229 237.196C324.423 234.593 321.594 230.048 335.295 237.843C345.042 243.426 353.572 246.986 362.751 243.79Z" fill="#4A6C8F"/>
</g>
<g style="mix-blend-mode:multiply" opacity="0.3">
<g style="mix-blend-mode:multiply" opacity="0.3">
<path d="M303.844 227.202C303.599 227.194 303.36 227.119 303.154 226.986C301.651 226.15 302.355 223.965 303.154 221.808C308.908 207.27 323.719 197.735 324.342 197.344C324.62 197.276 324.913 197.297 325.178 197.405C325.443 197.513 325.667 197.702 325.818 197.945C325.968 198.188 326.037 198.472 326.015 198.757C325.994 199.041 325.882 199.312 325.696 199.529C325.547 199.623 310.966 208.969 305.537 222.752L305.293 223.399C308.651 220.216 315.785 211.396 321.986 203.076C322.219 202.892 322.507 202.791 322.804 202.787C323.101 202.782 323.392 202.876 323.63 203.052C323.869 203.228 324.043 203.478 324.125 203.763C324.207 204.047 324.193 204.351 324.084 204.626C309.341 224.559 305.347 227.202 303.844 227.202Z" fill="#4A6C8F"/>
</g>
</g>
<g style="mix-blend-mode:multiply" opacity="0.3">
<g style="mix-blend-mode:multiply" opacity="0.3">
<path d="M325.967 240.702H325.859C325.528 240.662 325.225 240.502 325.005 240.254C324.785 240.005 324.665 239.684 324.667 239.353C326.021 223.17 340.832 203.534 341.469 202.698C341.705 202.521 341.992 202.426 342.288 202.427C342.583 202.428 342.87 202.526 343.105 202.705C343.34 202.883 343.509 203.134 343.588 203.417C343.666 203.701 343.65 204.003 343.54 204.276C343.391 204.478 328.526 224.1 327.294 239.569C327.243 239.883 327.081 240.17 326.838 240.377C326.596 240.584 326.287 240.699 325.967 240.702Z" fill="#4A6C8F"/>
</g>
</g>
<g style="mix-blend-mode:multiply" opacity="0.3">
<g style="mix-blend-mode:multiply" opacity="0.3">
<path d="M336.649 256.049C336.487 256.074 336.323 256.074 336.161 256.049C334.645 255.644 333.738 255.401 338.178 231.45C338.158 231.243 338.187 231.033 338.262 230.838C338.337 230.643 338.456 230.467 338.611 230.326C338.765 230.185 338.951 230.082 339.152 230.024C339.354 229.966 339.566 229.956 339.773 229.994C339.979 230.032 340.173 230.117 340.341 230.243C340.508 230.369 340.644 230.532 340.738 230.719C340.831 230.906 340.88 231.112 340.88 231.321C340.88 231.53 340.831 231.736 340.737 231.923C339.14 240.58 338.3 245.894 337.881 249.144L338.016 248.807C343.337 234.161 346.139 210.116 346.207 209.873C346.177 209.669 346.194 209.46 346.258 209.263C346.321 209.066 346.429 208.887 346.574 208.738C346.718 208.59 346.895 208.476 347.09 208.407C347.285 208.337 347.494 208.313 347.7 208.337C347.907 208.36 348.104 208.431 348.279 208.542C348.453 208.654 348.6 208.805 348.707 208.982C348.814 209.159 348.878 209.358 348.895 209.564C348.913 209.77 348.882 209.977 348.806 210.17C348.684 211.168 345.895 234.768 340.466 249.683C338.666 254.525 337.826 256.049 336.649 256.049Z" fill="#4A6C8F"/>
</g>
</g>
<path d="M473.131 261.591C472.657 274.16 472.292 286.149 472.386 290.748C472.603 302.022 474.336 325.811 474.336 335.251C474.336 344.691 463.248 355.831 463.248 355.831C442.055 356.781 420.821 356.204 399.712 354.104C364.511 350.639 346.749 339.149 346.749 339.149C346.147 332.446 346.147 325.703 346.749 319.001C346.884 317.355 347.155 315.265 347.521 312.892C348.265 307.969 349.375 301.847 350.54 295.953C352.665 284.976 354.899 274.794 354.899 274.794C354.899 274.794 354.209 268.213 353.965 258.692C353.559 243.129 354.29 219.731 361.059 204.424C361.235 204.033 361.398 203.656 361.587 203.278L385.848 200.095L396.34 198.747L412.492 196.643L432.895 199.34L438.527 202.847L446.717 207.944L466.348 220.082L474.674 223.979C474.674 223.979 474.593 225.651 474.471 228.47C474.173 235.28 473.605 248.726 473.131 261.591Z" fill="#D6D2D1"/>
<g style="mix-blend-mode:multiply" opacity="0.3">
<path d="M474.295 335.184C474.295 344.503 463.207 355.763 463.207 355.763C442.014 356.713 420.78 356.136 399.67 354.037C364.47 350.571 346.708 339.081 346.708 339.081C346.106 332.379 346.106 325.636 346.708 318.933C346.843 317.288 347.114 315.198 347.479 312.824C348.224 307.902 349.334 301.779 350.498 295.886C352.624 284.908 354.858 274.727 354.858 274.727C354.858 274.727 354.167 268.145 353.924 258.624C362.683 270.141 374.814 283.263 384.236 282.521C400.875 281.173 421.765 268.226 420.452 272.447C419.139 276.669 398.912 294.551 420.127 289.345C430.538 286.796 444.713 280.89 458.225 272.367C463.426 269.107 468.402 265.503 473.117 261.578C472.643 274.147 472.277 286.136 472.372 290.734C472.494 297.693 473.225 309.426 473.726 319.594C474.092 325.919 474.295 331.57 474.295 335.184Z" fill="#4A6C8F"/>
</g>
<g style="mix-blend-mode:multiply" opacity="0.3">
<path d="M473.753 319.607L443.007 315.683C443.007 315.683 454.15 291.853 458.265 272.366C463.467 269.107 468.442 265.502 473.158 261.577C472.684 274.146 472.318 286.135 472.413 290.734C472.508 297.706 473.239 309.439 473.753 319.607Z" fill="#4A6C8F"/>
</g>
<path d="M411.801 238.692L402.987 245.691L401.566 241.902L400.334 238.625L385.861 200.042L396.34 198.666L408.525 230.263L409.702 233.298L411.801 238.692Z" fill="#BFBEBE"/>
<g style="mix-blend-mode:multiply" opacity="0.3">
<path d="M411.801 238.693L402.987 245.692L401.566 241.902L400.334 238.625L408.525 230.264L409.702 233.298L411.801 238.693Z" fill="#4A6C8F"/>
</g>
<path d="M446.717 207.903L347.52 312.823C348.265 307.901 349.375 301.778 350.54 295.885L401.553 241.941L409.676 233.337L438.499 202.846L446.717 207.903Z" fill="#BFBEBE"/>
<path d="M474.674 224.007C474.674 224.007 474.593 225.679 474.471 228.497C467.702 223.75 439.596 209.9 431.92 206.92C423.661 203.67 371.443 206.488 366 206.488C364.226 206.133 362.543 205.417 361.059 204.385C361.235 203.994 361.397 203.616 361.587 203.238L385.848 200.056L396.34 198.707L412.492 196.603L432.894 199.3L438.526 202.807L446.717 207.904L466.348 220.042L474.674 224.007Z" fill="white"/>
<path d="M463.234 207.499C466.077 209.157 465.468 215.59 464.751 218.49C464.422 220.026 463.831 221.495 463.004 222.832C463.004 222.832 464.236 229.063 463.004 232.974C462.46 234.895 461.61 236.716 460.486 238.368C460.486 238.368 460.486 247.039 459.132 250.883C458.482 253.034 457.31 254.994 455.72 256.587C455.72 256.587 456.628 265.299 454.502 269.183C453.18 271.599 451.629 273.884 449.872 276.007C449.872 276.007 449.425 285.811 447.706 288.94C446.601 290.871 444.908 292.401 442.872 293.31C442.872 293.31 442.399 300.052 440.679 303.626C439.217 306.593 435.494 307.47 434.37 307.672H434.059C433.644 307.826 433.218 307.952 432.786 308.05C431.757 308.316 430.689 308.398 429.632 308.292C428.954 308.226 428.298 308.014 427.709 307.672C427.378 307.525 427.084 307.307 426.848 307.033C426.611 306.759 426.439 306.436 426.343 306.088C426.247 305.739 426.23 305.374 426.293 305.018C426.356 304.663 426.498 304.325 426.707 304.031C425.502 298.717 430.769 293.606 430.769 293.606C430.769 293.606 431.473 287.605 433.395 284.382C434.691 282.311 436.267 280.427 438.08 278.785C438.08 278.785 438.418 269.588 439.61 266.823C440.611 264.857 441.991 263.107 443.671 261.672C443.671 261.672 442.737 254.106 443.955 251.638C445.218 249.544 446.737 247.614 448.477 245.893C448.477 245.893 447.692 238.22 448.599 235.388C449.562 233.122 450.939 231.055 452.661 229.292C451.533 226.569 451.32 223.555 452.052 220.701C452.577 218.423 453.493 216.251 454.759 214.282C454.759 214.039 453.608 210.641 455.68 208.47C456.225 207.85 456.895 207.351 457.646 207.004C458.396 206.658 459.212 206.473 460.039 206.46C461.177 206.525 462.277 206.883 463.234 207.499Z" fill="#EABC32"/>
<g style="mix-blend-mode:multiply" opacity="0.3">
<path d="M439.162 280.956L442.845 293.336C442.845 293.336 442.371 300.079 440.651 303.653C439.189 306.62 435.466 307.496 434.342 307.699C436.278 305.5 436.874 302.304 437.578 297.989C438.394 292.341 438.923 286.656 439.162 280.956Z" fill="#D8782D"/>
</g>
<g style="mix-blend-mode:multiply" opacity="0.3">
<path d="M444.74 263.101L449.844 276.034C449.844 276.034 449.398 285.838 447.678 288.967C446.574 290.898 444.881 292.428 442.845 293.336C444.785 290.86 445.995 287.895 446.338 284.773C447.218 279.244 444.876 264.032 444.74 263.101Z" fill="#D8782D"/>
</g>
<g style="mix-blend-mode:multiply" opacity="0.3">
<path d="M449.289 246.243L455.693 256.614C455.693 256.614 456.6 265.326 454.474 269.21C453.152 271.626 451.602 273.911 449.844 276.034C449.844 276.034 452.66 266.971 452.85 262.669C453.039 258.367 449.505 246.958 449.289 246.243Z" fill="#D8782D"/>
</g>
<g style="mix-blend-mode:multiply" opacity="0.3">
<path d="M453.026 229.468L460.432 238.395C460.432 238.395 460.432 247.067 459.078 250.91C458.428 253.062 457.256 255.021 455.666 256.615C456.408 252.572 456.896 248.487 457.128 244.383C457.25 239.609 453.026 229.468 453.026 229.468Z" fill="#D8782D"/>
</g>
<g style="mix-blend-mode:multiply" opacity="0.3">
<path d="M463.234 207.498C466.077 209.157 465.468 215.59 464.751 218.489C464.422 220.026 463.831 221.494 463.004 222.832C463.004 222.832 464.236 229.062 463.004 232.973C462.46 234.894 461.61 236.715 460.486 238.368C460.486 238.368 461.312 228.563 460.053 224.194C458.794 219.824 454.867 214.686 454.637 214.349L461.258 218.031C461.258 218.031 464.439 210.694 460.337 206.891C460.188 206.757 460.053 206.622 459.917 206.514C461.091 206.541 462.237 206.881 463.234 207.498Z" fill="#D8782D"/>
</g>
<g style="mix-blend-mode:multiply" opacity="0.3">
<path d="M432.42 297.127C432.42 297.127 433.774 305.138 432.745 308.131C431.717 308.397 430.649 308.48 429.591 308.374C431.297 305.61 432.326 298.165 432.42 297.127Z" fill="#D8782D"/>
</g>
<path opacity="0.5" d="M433.286 290.046C433.151 296.155 435.71 299.243 436.251 290.882C436.793 282.521 433.408 284.962 433.286 290.046Z" fill="white"/>
<path opacity="0.5" d="M428.102 299.675C427.262 303.721 429.32 306.526 430.809 301.158C432.298 295.791 428.806 296.344 428.102 299.675Z" fill="white"/>
<path opacity="0.5" d="M440.448 274.928C441.477 280.942 444.591 283.505 443.521 275.184C442.452 266.863 439.649 269.857 440.448 274.928Z" fill="white"/>
<path opacity="0.5" d="M446.378 257.181C448.057 263.061 451.415 265.272 449.465 257.113C447.515 248.954 444.997 252.285 446.378 257.181Z" fill="white"/>
<path opacity="0.5" d="M450.101 240.31C451.78 246.19 455.151 248.401 453.174 240.242C451.198 232.083 448.707 235.428 450.101 240.31Z" fill="white"/>
<path opacity="0.5" d="M454.407 225.678C456.627 230.25 459.646 231.585 456.857 225.179C454.068 218.773 452.633 221.862 454.407 225.678Z" fill="white"/>
<path opacity="0.5" d="M457.345 212.49C458.915 215.888 461.691 216.872 459.795 212.112C457.9 207.351 456.032 209.657 457.345 212.49Z" fill="white"/>
<path d="M375.694 194.89C372.431 195.281 370.373 201.444 369.886 204.33C369.567 205.87 369.517 207.453 369.737 209.01C369.737 209.01 366.095 214.216 365.675 218.315C365.391 220.296 365.436 222.31 365.811 224.276C365.811 224.276 362.358 232.233 361.979 236.278C361.707 238.506 361.991 240.767 362.805 242.86C362.805 242.86 358.459 250.466 358.838 254.889C359.077 257.628 359.58 260.338 360.341 262.981C360.341 262.981 356.794 272.151 357.119 275.698C357.366 277.912 358.315 279.99 359.827 281.632C359.827 281.632 357.512 288.051 357.688 291.962C357.836 295.252 360.896 297.545 361.83 298.179L362.101 298.368C362.413 298.675 362.748 298.959 363.103 299.217C363.94 299.868 364.883 300.37 365.892 300.701C366.542 300.912 367.231 300.976 367.909 300.889C368.273 300.891 368.632 300.812 368.961 300.657C369.289 300.503 369.579 300.277 369.809 299.996C370.039 299.716 370.203 299.387 370.288 299.036C370.374 298.684 370.38 298.317 370.305 297.963C373.541 293.58 370.82 286.81 370.82 286.81C370.82 286.81 372.58 281.038 372.174 277.303C371.792 274.896 371.077 272.554 370.048 270.344C370.048 270.344 373.446 261.78 373.473 258.759C373.351 256.567 372.804 254.42 371.862 252.435C371.862 252.435 375.761 245.88 375.64 243.143C375.332 240.717 374.722 238.339 373.825 236.063C373.825 236.063 377.63 229.32 377.887 226.393C377.91 223.937 377.483 221.496 376.628 219.192C378.773 217.156 380.198 214.483 380.689 211.572C381.137 209.288 381.192 206.944 380.852 204.641C380.852 204.398 383.37 201.755 382.355 198.936C382.101 198.152 381.688 197.428 381.14 196.811C380.593 196.194 379.923 195.696 379.173 195.349C378.074 194.894 376.874 194.736 375.694 194.89Z" fill="#EABC32"/>
<g style="mix-blend-mode:multiply" opacity="0.3">
<path d="M368.166 271.787L359.813 281.672C359.813 281.672 357.498 288.092 357.674 292.003C357.823 295.293 360.883 297.586 361.817 298.22C360.937 295.441 361.681 292.259 362.764 288.038C364.551 281.065 367.977 272.327 368.166 271.787Z" fill="#D8782D"/>
</g>
<g style="mix-blend-mode:multiply" opacity="0.3">
<path d="M370.265 253.202L360.368 263.006C360.368 263.006 356.821 272.177 357.146 275.723C357.393 277.937 358.341 280.016 359.853 281.657C359.073 278.615 359.157 275.416 360.097 272.419C361.532 267.025 369.75 254.011 370.265 253.202Z" fill="#D8782D"/>
</g>
<g style="mix-blend-mode:multiply" opacity="0.3">
<path d="M372.878 235.942L362.832 242.887C362.832 242.887 358.487 250.493 358.866 254.917C359.104 257.656 359.607 260.365 360.368 263.008C360.368 263.008 361.451 253.568 362.995 249.522C364.538 245.476 372.391 236.522 372.878 235.942Z" fill="#D8782D"/>
</g>
<g style="mix-blend-mode:multiply" opacity="0.3">
<path d="M376.222 219.084L365.838 224.303C365.838 224.303 362.386 232.26 362.007 236.306C361.735 238.534 362.018 240.794 362.833 242.887C363.784 238.884 364.982 234.943 366.42 231.087C368.248 226.677 376.222 219.084 376.222 219.084Z" fill="#D8782D"/>
</g>
<g style="mix-blend-mode:multiply" opacity="0.3">
<path d="M375.693 194.89C372.431 195.281 370.373 201.444 369.885 204.33C369.566 205.87 369.516 207.453 369.736 209.01C369.736 209.01 366.094 214.215 365.675 218.315C365.39 220.296 365.436 222.31 365.81 224.276C365.81 224.276 368.992 214.971 371.902 211.464C374.813 207.958 380.486 204.816 380.838 204.613L373.297 205.342C373.297 205.342 373.297 197.345 378.631 195.511L379.173 195.322C378.071 194.876 376.871 194.727 375.693 194.89Z" fill="#D8782D"/>
</g>
<g style="mix-blend-mode:multiply" opacity="0.3">
<path d="M367.841 289.291C367.841 289.291 363.36 296.034 363.103 299.243C363.939 299.895 364.883 300.396 365.892 300.727C365.445 297.504 367.543 290.302 367.841 289.291Z" fill="#D8782D"/>
</g>
<path opacity="0.5" d="M369.899 282.467C367.557 288.104 363.969 289.925 366.84 282.049C369.71 274.173 371.835 277.76 369.899 282.467Z" fill="white"/>
<path opacity="0.5" d="M370.766 293.351C369.926 297.397 366.894 299.136 367.706 293.634C368.518 288.132 371.47 290.02 370.766 293.351Z" fill="white"/>
<path opacity="0.5" d="M369.399 265.664C366.028 270.775 362.156 271.868 366.488 264.68C370.82 257.492 372.201 261.443 369.399 265.664Z" fill="white"/>
<path opacity="0.5" d="M371.131 247.121C367.232 251.841 363.265 252.516 368.342 245.773C373.419 239.03 374.38 243.197 371.131 247.121Z" fill="white"/>
<path opacity="0.5" d="M374.516 230.182C370.617 234.888 366.65 235.576 371.727 228.833C376.804 222.09 377.765 226.271 374.516 230.182Z" fill="white"/>
<path opacity="0.5" d="M376.465 215.052C372.593 218.356 369.29 218.383 374.435 213.703C379.579 209.023 379.701 212.301 376.465 215.052Z" fill="white"/>
<path opacity="0.5" d="M379.092 201.795C376.276 204.29 373.338 204.088 376.994 200.446C380.649 196.805 381.434 199.732 379.092 201.795Z" fill="white"/>
<path d="M491.962 483.192C491.962 483.192 491.962 483.394 482.878 484.742C478.099 485.457 470.829 486.482 459.754 487.966L438.444 403.449L430.186 491C430.186 491 413.006 490.501 389.977 488.384C365.093 486.118 333.399 481.964 309.219 474.534L336.378 376.505L341.928 356.465L346.748 339.081C346.748 339.081 340.981 333.687 341.847 328.293C341.955 327.605 342.172 326.378 342.456 324.773L344.149 315.333C346.423 302.831 349.564 285.852 349.957 283.587C349.961 283.506 349.961 283.425 349.957 283.344C349.957 283.344 373.284 288.738 401.836 294.241C419.667 297.693 440.678 298.543 453.932 298.704C461.92 298.785 467.105 298.637 467.105 298.637C467.11 298.668 467.11 298.7 467.105 298.731C467.552 300.646 473.645 327.982 474.267 335.143C474.931 342.615 470.68 354.32 470.68 354.32L491.962 483.192Z" fill="#4C6E90"/>
<path opacity="0.2" d="M389.976 488.384C365.093 486.118 333.399 481.964 309.219 474.534L336.377 376.504C331.097 408.938 325.289 457.015 325.547 460.657C325.872 465.538 352.962 383.288 352.962 376.788C352.949 371.326 369.736 448.317 389.976 488.384Z" fill="white"/>
<path d="M491.963 483.191C491.963 483.191 491.963 483.393 482.878 484.741C476.764 471.377 471.373 457.696 466.727 443.758C452.809 401.722 455.896 398.243 446.284 394.345C436.671 390.448 417.555 409.949 399.711 409.949C398.601 409.949 397.494 409.837 396.408 409.611C395.054 410.003 393.781 410.313 392.834 410.528C392.012 410.93 391.166 411.281 390.302 411.58C389.56 411.708 388.798 411.645 388.087 411.397C387.376 411.149 386.741 410.725 386.24 410.164C385.508 409.447 385.065 408.488 384.995 407.467C384.974 407.279 384.974 407.089 384.995 406.901L384.738 406.725C384.299 406.947 383.847 407.14 383.384 407.305C382.49 407.482 381.568 407.453 380.688 407.219C379.808 406.985 378.993 406.553 378.307 405.957C377.338 404.977 376.707 403.716 376.506 402.356C376.449 401.93 376.51 401.496 376.682 401.102L376.791 400.994C376.411 401.129 376.073 401.25 375.843 401.304C374.94 401.439 374.018 401.362 373.151 401.079C372.283 400.796 371.494 400.314 370.847 399.672C370.025 398.717 369.482 397.556 369.277 396.314C369.219 395.962 369.219 395.602 369.277 395.249H369.087C368.089 395.361 367.08 395.161 366.2 394.678C365.32 394.195 364.611 393.452 364.173 392.552C362.886 390.34 363.157 388.6 363.604 388.021C364.118 386.672 367.314 384.137 370.955 381.804C370.772 381.598 370.662 381.337 370.644 381.062C370.752 380.334 373.771 379.214 376.506 377.326C376.953 377.016 377.427 376.692 377.86 376.342C375.152 371.028 369.168 373.82 362.318 363.571C362.318 363.571 348.698 365.593 342.01 356.463L346.83 339.08C346.83 339.08 341.062 333.686 341.929 328.291C342.037 327.604 342.254 326.376 342.538 324.772C357.85 336.127 395.975 344.286 397.166 344.528L391.101 338.568C390.698 338.138 390.448 337.588 390.388 337.003C390.328 336.419 390.462 335.83 390.768 335.328C391.075 334.826 391.538 334.437 392.086 334.221C392.635 334.005 393.24 333.973 393.808 334.131C403.922 337.367 419.044 341.467 431.364 341.723C451.821 342.155 453.324 333.052 454.204 326.12C455.084 319.188 451.821 316.586 451.374 307.914C451.252 305.662 452.376 302.372 454.082 298.73C462.07 298.811 467.255 298.663 467.255 298.663C467.255 298.663 473.781 327.752 474.43 335.223C474.583 338.7 474.222 342.181 473.361 345.553C472.698 348.549 471.857 351.503 470.843 354.4L474.295 376.072L491.963 483.191Z" fill="#18203D"/>
<path opacity="0.2" d="M467.173 298.717C457.426 301.239 436.4 306.027 419.301 305.703C396.286 305.272 354.682 292.703 353.599 295.521C352.881 297.396 347.642 307.659 344.122 315.319C346.396 302.817 349.537 285.838 349.93 283.573C349.934 283.492 349.934 283.411 349.93 283.33C349.93 283.33 373.257 288.724 401.809 294.227C419.64 297.679 440.652 298.529 453.906 298.69C461.893 298.771 467.079 298.623 467.079 298.623C467.117 298.648 467.149 298.68 467.173 298.717Z" fill="white"/>
<path d="M477.611 363.936C476.149 367.982 467.742 368.656 463.897 368.4C461.856 368.337 459.841 367.927 457.94 367.186C457.94 367.186 450.277 370.207 444.97 369.479C442.38 369.236 439.847 368.576 437.47 367.523C437.47 367.523 426.368 369.479 421.142 368.737C418.225 368.425 415.433 367.391 413.019 365.73C413.019 365.73 402.093 368.899 396.624 367.078C393.231 365.959 389.953 364.518 386.836 362.776C386.836 362.776 374.177 364.476 369.777 363.019C367.057 362.064 364.713 360.269 363.089 357.895C363.089 357.895 354.275 358.879 349.374 357.49C345.313 356.33 343.269 351.799 342.754 350.423C342.696 350.297 342.646 350.166 342.605 350.032C342.308 349.543 342.045 349.034 341.82 348.508C341.239 347.269 340.89 345.935 340.791 344.57C340.712 343.692 340.833 342.807 341.143 341.981C341.251 341.526 341.46 341.101 341.754 340.737C342.049 340.373 342.421 340.078 342.844 339.875C343.266 339.673 343.729 339.566 344.199 339.564C344.668 339.562 345.132 339.665 345.557 339.864C352.082 337.167 359.826 342.561 359.826 342.561C359.826 342.561 367.651 342.062 372.227 343.761C375.173 344.927 377.943 346.493 380.459 348.414C380.459 348.414 392.305 346.701 396.123 347.591C398.86 348.388 401.413 349.712 403.637 351.489C403.637 351.489 413.114 348.562 416.526 349.533C419.499 350.648 422.323 352.124 424.933 353.93C424.933 353.93 434.559 351.165 438.39 351.664C442.222 352.163 447.123 355.386 447.123 355.386C450.348 353.35 454.146 352.404 457.953 352.689C460.976 352.816 463.956 353.45 466.767 354.563C467.092 354.563 471.167 352.271 474.43 354.388C475.345 354.939 476.135 355.672 476.75 356.543C477.365 357.414 477.792 358.402 478.004 359.445C478.279 360.95 478.144 362.501 477.611 363.936Z" fill="#EABC32"/>
<g style="mix-blend-mode:multiply" opacity="0.3">
<path d="M378.172 350.45L363.198 357.989C363.198 357.989 354.385 358.973 349.484 357.584C345.422 356.424 343.378 351.893 342.863 350.517C346.112 352.473 350.35 352.486 356.009 352.392C365.297 352.163 377.373 350.45 378.172 350.45Z" fill="#D8782D"/>
</g>
<g style="mix-blend-mode:multiply" opacity="0.3">
<path d="M402.243 353.335L386.891 362.775C386.891 362.775 374.232 364.474 369.832 363.018C367.112 362.063 364.768 360.267 363.144 357.893C363.144 357.893 367.382 360.59 374.882 360.348C382.233 360.145 401.079 353.726 402.243 353.335Z" fill="#D8782D"/>
</g>
<g style="mix-blend-mode:multiply" opacity="0.3">
<path d="M424.853 355.21L413.074 365.742C413.074 365.742 402.148 368.912 396.679 367.091C393.286 365.971 390.008 364.531 386.89 362.789C386.89 362.789 399.075 364.259 404.667 363.517C410.258 362.776 423.986 355.655 424.853 355.21Z" fill="#D8782D"/>
</g>
<g style="mix-blend-mode:multiply" opacity="0.3">
<path d="M447.218 356.06L437.511 367.537C437.511 367.537 426.409 369.492 421.183 368.75C418.266 368.438 415.474 367.404 413.06 365.743C418.405 365.745 423.744 365.421 429.049 364.772C435.182 363.787 447.218 356.06 447.218 356.06Z" fill="#D8782D"/>
</g>
<g style="mix-blend-mode:multiply" opacity="0.3">
<path d="M477.612 363.936C476.149 367.981 467.742 368.656 463.897 368.399C461.856 368.336 459.842 367.926 457.94 367.186C457.94 367.186 450.277 370.207 444.97 369.478C442.38 369.236 439.847 368.575 437.47 367.523C437.47 367.523 450.196 366.296 455.49 363.693C460.783 361.09 466.456 354.927 466.821 354.536L463.653 363.774C463.653 363.774 473.767 366.134 477.679 360.038C477.815 359.822 477.964 359.62 478.072 359.404C478.333 360.928 478.174 362.495 477.612 363.936Z" fill="#D8782D"/>
</g>
<g style="mix-blend-mode:multiply" opacity="0.3">
<path d="M355.887 345.581C355.887 345.581 345.949 349.168 341.874 348.535C341.293 347.295 340.945 345.961 340.845 344.597C344.772 346.121 354.506 345.649 355.887 345.581Z" fill="#D8782D"/>
</g>
<path opacity="0.5" d="M365.134 345.054C357.295 346.295 353.924 350.26 364.741 349.006C375.558 347.751 371.659 344.016 365.134 345.054Z" fill="white"/>
<path opacity="0.5" d="M351.622 340.699C346.315 340.551 343.147 343.814 350.349 344.448C357.552 345.082 356.035 340.807 351.622 340.699Z" fill="white"/>
<path opacity="0.5" d="M386.213 350.692C378.767 353.389 376.222 357.92 386.606 354.643C396.99 351.366 392.427 348.44 386.213 350.692Z" fill="white"/>
<path opacity="0.5" d="M410.19 354.063C403.069 357.529 401.025 362.303 411.003 357.947C420.981 353.591 416.08 351.163 410.19 354.063Z" fill="white"/>
<path opacity="0.5" d="M432.623 354.872C425.502 358.365 423.471 363.139 433.435 358.756C443.4 354.373 438.553 351.959 432.623 354.872Z" fill="white"/>
<path opacity="0.5" d="M452.349 356.951C446.934 360.834 445.986 364.961 453.54 359.944C461.095 354.928 456.79 353.727 452.349 356.951Z" fill="white"/>
<path opacity="0.5" d="M469.881 357.625C465.9 360.417 465.278 364.152 470.937 360.659C476.596 357.166 473.211 355.305 469.881 357.625Z" fill="white"/>
<path d="M481.307 333.443L466.347 337.624C466.347 337.624 472.385 352.957 478.261 360.968C484.137 368.978 504.851 375.33 504.851 375.33C504.851 375.33 509.806 368.992 502.847 354.252C495.888 339.512 481.307 333.443 481.307 333.443Z" fill="#D6D2D1"/>
<path d="M499.111 360.334C499.111 360.334 462.327 371.865 441.044 379.484C437.416 380.833 433.977 382.02 430.931 383.139C423.173 385.944 417.812 387.953 417.663 388.129C416.127 390.587 414.223 392.797 412.017 394.683L410.961 395.573L410.609 395.829C407.849 397.609 404.868 399.023 401.742 400.037L401.051 400.293C398.302 401.25 395.505 402.065 392.671 402.734C391.846 403.135 390.996 403.482 390.126 403.772C389.51 403.906 388.871 403.895 388.26 403.741C387.649 403.587 387.083 403.293 386.606 402.882C386.402 402.72 386.213 402.545 386.023 402.37C385.284 401.655 384.832 400.696 384.751 399.673C384.737 399.484 384.737 399.295 384.751 399.106C384.675 399.045 384.593 398.99 384.507 398.944C384.066 399.16 383.614 399.354 383.153 399.524C382.258 399.703 381.333 399.675 380.45 399.441C379.567 399.207 378.751 398.774 378.063 398.176C377.093 397.198 376.466 395.936 376.276 394.575C376.215 394.147 376.266 393.71 376.425 393.307L376.56 393.199C375.549 393.631 374.427 393.732 373.355 393.49C372.283 393.248 371.315 392.674 370.589 391.851C369.764 390.894 369.225 389.726 369.032 388.479C368.967 388.127 368.967 387.766 369.032 387.414H368.829C367.832 387.531 366.823 387.333 365.944 386.85C365.065 386.366 364.36 385.62 363.928 384.717C363.45 383.943 363.137 383.08 363.008 382.181C362.96 381.814 362.96 381.443 363.008 381.076C363.048 380.763 363.159 380.463 363.333 380.199C363.982 379.14 364.838 378.223 365.851 377.502C367.406 376.254 369.028 375.093 370.711 374.022C370.529 373.815 370.42 373.555 370.4 373.281C370.508 372.552 373.514 371.433 376.262 369.545C377.846 368.466 379.66 367.023 381.177 365.917C381.937 365.316 382.753 364.787 383.613 364.34L383.803 364.245L384.169 364.124C385.003 363.902 385.876 363.86 386.727 364.002L388.366 364.151C388.826 364.151 389.394 364.218 389.99 364.232C392.007 364.232 394.702 364.164 397.369 364.407C398.165 364.456 398.956 364.559 399.738 364.717C402.888 365.497 405.923 366.68 408.768 368.237C408.882 368.276 409 368.303 409.12 368.318C419.021 364.35 428.697 359.848 438.106 354.832C442.317 352.58 445.782 350.651 448.937 348.885C454.664 345.648 459.159 343.045 464.818 340.2C466.713 339.269 468.717 338.312 470.951 337.273L488.74 341.238L499.111 360.334Z" fill="#DC8865"/>
<path d="M401.701 400.036L401.011 400.293C398.262 401.249 395.464 402.064 392.631 402.734C391.806 403.134 390.955 403.481 390.085 403.772C389.469 403.906 388.831 403.895 388.22 403.741C387.609 403.586 387.042 403.292 386.565 402.882C386.362 402.72 386.173 402.545 385.983 402.369C385.244 401.654 384.791 400.696 384.711 399.672C384.697 399.484 384.697 399.294 384.711 399.106C384.635 399.044 384.553 398.99 384.467 398.944C384.026 399.16 383.574 399.353 383.113 399.524C382.217 399.703 381.293 399.674 380.41 399.441C379.527 399.207 378.71 398.774 378.023 398.175C377.053 397.198 376.426 395.935 376.235 394.575C376.175 394.146 376.226 393.71 376.384 393.307L376.52 393.199C375.509 393.63 374.387 393.732 373.315 393.49C372.242 393.248 371.274 392.674 370.549 391.85C369.724 390.894 369.185 389.726 368.992 388.479C368.927 388.127 368.927 387.766 368.992 387.414H368.789C367.792 387.53 366.783 387.333 365.904 386.849C365.025 386.365 364.32 385.62 363.888 384.716C363.41 383.943 363.097 383.08 362.968 382.181C362.92 381.814 362.92 381.442 362.968 381.075C366.095 384.474 374.123 378.284 374.123 378.284C374.123 378.284 374.949 380.482 378.781 382.181C379.724 384.741 381.626 386.839 384.088 388.034C384.088 388.034 384.738 393.239 389.625 394.291C389.625 394.291 391.832 400.387 400.889 399.982L401.701 400.036Z" fill="#D25C2C"/>
<path opacity="0.5" d="M464.817 340.146C453.283 352.432 408.714 371.016 408.714 371.016C408.714 371.016 389.123 365.621 386.849 366.552C384.927 367.361 367.895 377.489 363.035 382.236C362.9 381.558 363.015 380.854 363.36 380.253C364.008 379.195 364.865 378.277 365.878 377.556C367.433 376.309 369.055 375.147 370.738 374.077C370.556 373.87 370.447 373.609 370.427 373.335C370.535 372.607 373.541 371.488 376.289 369.6C377.873 368.521 379.687 367.078 381.203 365.972C381.964 365.37 382.78 364.842 383.64 364.394L383.83 364.3L384.195 364.178C385.03 363.956 385.902 363.914 386.754 364.057L388.392 364.205C388.853 364.205 389.421 364.273 390.017 364.286C392.034 364.286 394.728 364.219 397.396 364.461C398.192 364.51 398.983 364.613 399.765 364.772C402.915 365.551 405.95 366.734 408.795 368.291C408.909 368.33 409.027 368.358 409.147 368.372C419.047 364.404 428.724 359.902 438.133 354.886C442.343 352.634 445.809 350.706 448.964 348.939C454.623 345.595 459.118 342.992 464.817 340.146Z" fill="white"/>
<path d="M499.111 360.335C499.111 360.335 462.326 371.865 441.044 379.485C437.416 380.833 433.977 382.02 430.931 383.139C423.173 385.944 417.812 387.954 417.663 388.129C416.127 390.587 414.223 392.797 412.017 394.683L410.961 395.573L410.609 395.83C407.63 397.732 404.412 399.233 401.038 400.294C398.288 401.25 395.491 402.065 392.657 402.734C391.832 403.135 390.982 403.482 390.112 403.773C389.496 403.907 388.857 403.896 388.247 403.742C387.636 403.587 387.069 403.293 386.592 402.883C392.176 400.442 397.622 397.701 402.906 394.67C409.107 390.772 415.957 381.831 417.094 381.669C418.231 381.508 476.826 354.846 476.826 354.846C476.826 354.846 479.101 349.978 476.325 348.184C474.416 346.957 468.649 342.722 464.804 340.092C466.699 339.162 468.703 338.204 470.937 337.166L488.727 341.131L499.111 360.335Z" fill="#D25C2C"/>
<path d="M521.828 340.537C521.666 343.14 504.864 375.33 504.864 375.33C504.864 375.33 492.612 348.183 486.411 344.448C480.211 340.712 466.347 337.624 466.347 337.624C466.347 337.624 466.347 337.395 466.158 336.977C465.183 333.605 460.621 318.002 459.673 313.295C459.619 313.053 459.578 312.837 459.551 312.648C458.901 308.521 463.68 298.124 463.68 298.124C463.68 298.124 458.671 283.073 457.155 279.702C456.46 278.104 456.004 276.414 455.801 274.685C453.77 260.174 463.328 235.711 471.587 226.675C472.487 225.634 473.531 224.726 474.687 223.978C476.06 224.288 477.416 224.67 478.749 225.124C479.412 225.435 497.337 258.286 499.639 265.919C501.845 273.31 504.066 291.839 504.201 292.999C504.201 292.999 509.914 291.044 511.214 292.513C512.514 293.983 512.69 309.425 512.69 309.425C512.69 309.425 518.877 315.925 519.703 317.058C520.529 318.191 519.351 323.504 518.999 325.284C518.917 325.635 518.877 325.851 518.877 325.851C518.877 325.851 521.991 337.934 521.828 340.537Z" fill="#D6D2D1"/>
<path d="M504.202 293.026C503.904 291.906 499.192 274.01 494.143 264.975C488.917 255.643 479.128 232.892 475.649 229.426C474.385 228.399 473.025 227.496 471.587 226.729C472.487 225.688 473.531 224.78 474.688 224.032C476.061 224.341 477.417 224.724 478.749 225.178C479.413 225.488 497.338 258.34 499.639 265.973C501.846 273.336 504.08 291.866 504.202 293.026Z" fill="white"/>
<g style="mix-blend-mode:multiply" opacity="0.3">
<path d="M483.907 316.546C475.932 314.805 467.827 313.718 459.673 313.296C459.619 313.053 459.578 312.837 459.551 312.648C458.901 308.522 463.68 298.124 463.68 298.124C463.68 298.124 458.671 283.074 457.155 279.702C456.461 278.105 456.005 276.415 455.801 274.686C464.208 286.931 481.172 294.982 482.621 294.658C484.57 294.227 501.994 299.001 504.81 300.295C507.626 301.59 482.404 302.021 478.492 302.898C474.579 303.775 505.013 312.689 510.239 316.735C515.465 320.78 498.271 319.796 483.907 316.546Z" fill="#4A6C8F"/>
</g>
<g style="mix-blend-mode:multiply" opacity="0.3">
<path d="M521.828 340.537C521.666 343.14 504.865 375.331 504.865 375.331C504.865 375.331 492.612 348.184 486.412 344.448C480.211 340.713 466.347 337.624 466.347 337.624C466.347 337.624 466.347 337.395 466.158 336.977L468.243 336.262C468.243 336.262 488.551 337.611 499.138 340.389C505.019 341.856 510.592 344.349 515.601 347.752C513.637 346.201 501.994 337.112 495.225 332.365C487.82 327.159 480.211 323.909 481.091 323.909C489.27 325.756 497.334 328.075 505.244 330.855C511.593 333.39 499.138 323.572 498.474 323.06C499.056 323.154 508.845 324.786 518.958 325.366C518.877 325.716 518.836 325.932 518.836 325.932C518.836 325.932 521.991 337.935 521.828 340.537Z" fill="#4A6C8F"/>
</g>
<g style="mix-blend-mode:multiply" opacity="0.3">
<g style="mix-blend-mode:multiply" opacity="0.3">
<path d="M488.009 305.164C487.803 305.083 487.633 304.931 487.531 304.736C487.428 304.54 487.4 304.314 487.451 304.1C487.502 303.885 487.629 303.696 487.808 303.567C487.988 303.438 488.208 303.378 488.429 303.397C495.625 304.178 502.614 306.271 509.048 309.574C509.164 309.626 509.268 309.701 509.353 309.795C509.438 309.888 509.503 309.998 509.543 310.118C509.584 310.238 509.599 310.365 509.588 310.491C509.576 310.617 509.539 310.739 509.478 310.85C509.418 310.961 509.334 311.058 509.234 311.135C509.134 311.213 509.019 311.269 508.895 311.3C508.772 311.33 508.644 311.336 508.519 311.315C508.394 311.294 508.275 311.248 508.168 311.179C501.957 308.006 495.218 305.987 488.28 305.218C488.188 305.213 488.097 305.195 488.009 305.164Z" fill="#4A6C8F"/>
</g>
</g>
<g style="mix-blend-mode:multiply" opacity="0.3">
<g style="mix-blend-mode:multiply" opacity="0.3">
<path d="M512.202 328.522C511.942 328.517 511.688 328.437 511.471 328.292C499.287 319.945 469.502 315.063 469.245 315.009C468.977 314.885 468.758 314.677 468.62 314.417C468.482 314.157 468.433 313.859 468.48 313.569C468.528 313.279 468.669 313.013 468.883 312.81C469.097 312.607 469.371 312.48 469.664 312.446C470.91 312.649 500.288 317.463 512.988 326.148C513.263 326.351 513.451 326.65 513.514 326.985C513.577 327.321 513.509 327.667 513.326 327.955C513.199 328.133 513.03 328.278 512.834 328.377C512.639 328.475 512.422 328.525 512.202 328.522Z" fill="#4A6C8F"/>
</g>
</g>
<g style="mix-blend-mode:multiply" opacity="0.3">
<g style="mix-blend-mode:multiply" opacity="0.3">
<path d="M506.652 341.846C506.461 341.849 506.272 341.81 506.098 341.731C505.925 341.651 505.772 341.534 505.65 341.388C493.167 326.742 472.413 320.889 472.196 320.835C471.988 320.833 471.784 320.783 471.598 320.69C471.413 320.597 471.252 320.462 471.127 320.296C471.002 320.131 470.917 319.939 470.879 319.736C470.84 319.532 470.85 319.323 470.905 319.123C470.961 318.924 471.063 318.74 471.201 318.586C471.34 318.432 471.513 318.312 471.705 318.235C471.898 318.158 472.106 318.126 472.314 318.142C472.521 318.158 472.721 318.221 472.9 318.327C473.78 318.569 494.643 324.463 507.64 339.702C507.853 339.969 507.956 340.308 507.928 340.648C507.901 340.989 507.744 341.306 507.491 341.536C507.259 341.739 506.96 341.85 506.652 341.846Z" fill="#4A6C8F"/>
</g>
</g>
<path d="M437.903 205.813L421.413 221.929L408.904 234.147L397.112 202.779L397.748 198.531L402.229 168.538L410.826 169.064L436.238 170.642L437.362 170.709L437.903 205.813Z" fill="#DC8865"/>
<path d="M421.414 221.915L408.904 234.133L397.125 202.778L397.775 198.53L402.243 168.524L410.854 169.064C409.175 184.397 411.585 199.407 421.414 221.915Z" fill="#D25C2C"/>
<path d="M436.238 170.628C432.082 187.175 419.451 207.148 397.748 198.53L402.216 168.524L436.238 170.628Z" fill="#18203D"/>
<path d="M398.709 149.402C398.709 149.402 395.04 140.798 388.921 144.534C382.801 148.269 387.865 167.365 399.454 165.666L398.709 149.402Z" fill="#DC8865"/>
<path d="M390.641 149.024C394.015 151.573 396.551 155.066 397.924 159.057" stroke="#18203D" stroke-width="3.85598" stroke-linecap="round" stroke-linejoin="round"/>
<path d="M391.994 157.049C392.45 155.411 393.228 153.88 394.282 152.545" stroke="#18203D" stroke-width="3.85598" stroke-linecap="round" stroke-linejoin="round"/>
<path d="M443.942 150.858C443.942 150.858 448.559 142.767 454.218 147.109C459.877 151.452 452.701 169.914 441.383 166.92L443.942 150.858Z" fill="#DC8865"/>
<path d="M452.011 151.358C448.369 153.506 445.456 156.691 443.644 160.501" stroke="#18203D" stroke-width="3.85598" stroke-linecap="round" stroke-linejoin="round"/>
<path d="M449.749 159.166C449.484 157.491 448.885 155.887 447.989 154.446" stroke="#18203D" stroke-width="3.85598" stroke-linecap="round" stroke-linejoin="round"/>
<path d="M441.383 168.525C440.165 172.665 430.958 185.814 427.574 187.958C427.379 188.099 427.158 188.2 426.924 188.255C423.521 188.731 420.07 188.754 416.662 188.322C415.323 188.144 414.012 187.795 412.763 187.284C408.701 185.436 401.241 174.931 399.387 171.896C397.532 168.862 397.329 159.004 397.329 143.819C397.329 133.124 397.789 122.16 405.303 116.132C408.43 113.624 412.79 111.951 418.841 111.533C427.723 110.913 435.304 113.826 439.921 119.234C442.699 122.538 444.345 126.639 444.619 130.94C445.621 143.495 442.683 164.088 441.383 168.525Z" fill="#DC8865"/>
<path d="M416.662 188.323C415.323 188.145 414.012 187.796 412.763 187.284C408.701 185.437 401.241 174.931 399.387 171.897C397.532 168.862 397.329 159.004 397.329 143.819C397.329 133.125 397.789 122.161 405.303 116.133C405.763 135.903 407.32 161.364 407.767 167.446C408.146 172.571 412.79 181.593 416.662 188.323Z" fill="#D25C2C"/>
<path d="M404.747 152.572C406.465 151.271 408.603 150.644 410.755 150.811C412.906 150.977 414.921 151.926 416.417 153.475C412.681 152.128 408.647 151.816 404.747 152.572Z" fill="#18203D"/>
<path d="M404.883 144.641L416.31 147.338C416.31 147.338 415.768 145.436 414.834 145.113C413.9 144.789 404.883 144.641 404.883 144.641Z" fill="#18203D"/>
<path d="M436.536 145.127L425.123 147.824C425.123 147.824 425.664 145.923 426.585 145.599C427.506 145.275 436.536 145.127 436.536 145.127Z" fill="#18203D"/>
<path d="M425.475 153.88C427.1 152.38 429.18 151.463 431.387 151.272C433.593 151.082 435.8 151.629 437.66 152.828C433.57 152.66 429.475 153.013 425.475 153.88Z" fill="#18203D"/>
<path d="M419.356 154.446C419.356 154.446 416.824 165.234 416.255 167.136C415.687 169.037 420.317 169.644 420.317 169.644" stroke="#18203D" stroke-width="3.85598" stroke-linecap="round" stroke-linejoin="round"/>
<path d="M428.413 174.768C428.413 174.768 424.744 179.974 420.168 180.055C415.592 180.136 412.587 174.93 412.587 174.93C412.587 174.93 421.495 172.651 428.413 174.768Z" fill="white"/>
<path opacity="0.5" d="M441.382 168.524C440.164 172.664 430.958 185.813 427.573 187.957C431.215 182.158 436.509 172.799 437.361 166.38C438.214 159.961 439.595 137.25 439.947 119.247C442.725 122.55 444.371 126.652 444.645 130.952C445.62 143.494 442.682 164.087 441.382 168.524Z" fill="white"/>
<path d="M448.233 135.269C448.133 138.852 447.54 142.405 446.473 145.828C445.833 148.044 445.06 150.219 444.158 152.342C443.104 149.998 442.23 147.577 441.545 145.1C441.058 142.673 440.733 133.637 440.733 133.637C440.733 133.637 440.151 133.637 427.601 129.821C415.05 126.004 411.936 115.687 411.936 115.687C410.603 120.492 407.63 124.684 403.529 127.542C402.745 130.486 402.331 133.517 402.297 136.564C402.148 142.255 397.328 150.05 397.328 150.05C397.328 150.05 393.903 141.365 393.483 134.298C393.483 134.298 391.669 119.72 394.526 113.489C394.813 112.789 395.236 112.151 395.771 111.615C400.348 107.313 404.666 108.917 404.666 108.917C404.666 108.917 407.523 102.647 417.149 101.271C426.775 99.8954 432.894 102.62 432.894 102.62L426.91 104.791C426.91 104.791 442.006 103.442 446.487 111.857C450.968 120.273 448.233 127.393 448.233 135.269Z" fill="#18203D"/>
<path opacity="0.2" d="M405.965 112.195C404.094 111.478 402.076 111.227 400.085 111.462C398.094 111.697 396.191 112.411 394.539 113.543C394.815 112.824 395.234 112.169 395.771 111.615C400.347 107.313 404.666 108.917 404.666 108.917C404.666 108.917 407.522 102.647 417.148 101.271C426.774 99.8954 432.894 102.62 432.894 102.62C410.135 100.165 405.965 112.195 405.965 112.195Z" fill="white"/>
<path opacity="0.3" d="M448.233 135.268C448.233 135.794 448.233 136.347 448.166 136.887C448.085 136.523 447.976 136.158 447.881 135.794C450.955 105.883 426.856 104.777 426.856 104.777C426.856 104.777 441.952 103.428 446.433 111.843C450.914 120.259 448.233 127.393 448.233 135.268Z" fill="white"/>
<path d="M448.775 136.658C448.531 139.166 448.342 141.229 448.342 141.229L393.064 138.923L392.698 132.072L392.333 125.437C392.333 125.437 449.438 127.46 449.52 127.716C449.601 127.973 449.14 132.801 448.775 136.658Z" fill="white"/>
<path d="M423.065 138.37C425.839 138.37 428.088 136.13 428.088 133.367C428.088 130.604 425.839 128.364 423.065 128.364C420.291 128.364 418.042 130.604 418.042 133.367C418.042 136.13 420.291 138.37 423.065 138.37Z" fill="#CA404E"/>
<g style="mix-blend-mode:multiply" opacity="0.3">
<path d="M448.775 136.658C448.531 139.166 448.342 141.229 448.342 141.229L393.064 138.923L392.699 132.072C403.638 132.706 420.507 132.989 421.996 132.989C424.054 132.989 412.262 135.161 412.262 135.161C412.262 135.161 435.737 136.024 448.775 136.658Z" fill="#4A6C8F"/>
</g>
<path d="M197.892 163.871C197.229 166.151 192.829 189.387 183.853 202.981C174.877 216.574 182.715 227.35 182.715 227.35C182.715 227.35 168.676 257.976 169.678 270.882C170.68 283.788 191.042 307.618 223.521 302.25C255.999 296.883 262.674 279.661 259.736 264.49C257.559 254.03 254.728 243.716 251.261 233.607C251.261 233.607 255.499 226.136 252.886 218.179C250.273 210.222 244.072 181.605 241.297 168.605C238.521 155.605 197.892 163.871 197.892 163.871Z" fill="#18203D"/>
<path d="M204.337 475.949H257.963V360.644L219.134 378.918L204.337 475.949Z" fill="#18203D"/>
<path d="M285.013 473.346C273.861 476.938 262.096 478.254 250.422 477.217C250.422 477.217 246.55 463.609 242.137 446.037C236.383 423.111 229.722 393.442 229.532 378.392C229.532 375.91 229.532 373.348 229.532 370.772C229.532 364.623 229.532 358.311 229.681 352.324C229.789 344.974 229.965 338.069 230.114 332.459C230.344 324.111 230.575 318.582 230.575 318.582L255.364 316.303C255.364 316.303 256.569 320.969 258.166 327.59C258.816 330.288 259.52 333.308 260.238 336.464C261.009 339.903 261.794 343.531 262.512 347.078C263.23 350.624 263.947 354.292 264.475 357.529C264.935 360.348 265.301 362.923 265.49 365.068C266.844 379.7 270.378 413.496 271.366 417.083C272.354 420.67 285.013 473.346 285.013 473.346Z" fill="#B7B4B3"/>
<g style="mix-blend-mode:multiply" opacity="0.3">
<path d="M257.935 460.657C257.935 463.583 244.221 427.185 244.221 427.185C244.221 427.185 243.273 435.977 242.136 446.065C236.395 423.139 229.721 393.47 229.545 378.42C229.342 362.628 229.721 344.583 230.059 332.473C230.303 324.125 230.52 318.61 230.52 318.61L255.322 316.33C255.322 316.33 256.527 320.997 258.111 327.618C259.465 333.242 261.09 340.295 262.457 347.092C257.759 360.942 253.725 374.751 252.06 380.699C245.371 404.393 257.935 457.73 257.935 460.657Z" fill="#4A6C8F"/>
</g>
<g style="mix-blend-mode:multiply" opacity="0.3">
<path d="M258.112 327.618C255.392 328.632 252.606 329.457 249.772 330.086C247.809 330.207 239.767 327.713 238.02 328.576C236.504 329.331 234.121 332.123 230.06 332.473C230.303 324.125 230.52 318.61 230.52 318.61L255.323 316.33C255.323 316.33 256.528 320.997 258.112 327.618Z" fill="#4A6C8F"/>
</g>
<path d="M251.41 317.962L248.702 329.992C246.469 339.917 243.382 353.524 241.662 361.184C241.229 363.086 240.606 366.943 239.875 372.095C235.624 402.222 227.298 477.568 227.298 477.568C227.298 477.568 214.572 479.51 185.857 480.494C177.665 480.772 169.472 479.979 161.487 478.134C157.212 477.15 153.013 475.861 148.924 474.277C145.216 472.885 141.645 471.156 138.255 469.112C138.255 469.112 142.181 438.229 152.945 393.699C157.176 376.302 162.605 359.215 169.191 342.56C171.37 337.072 173.334 332.459 174.972 328.832C177.679 322.763 179.439 319.459 179.439 319.459L251.41 317.962Z" fill="#D6D2D1"/>
<g style="mix-blend-mode:multiply" opacity="0.3">
<path d="M178.627 346.565C177.978 350.139 182.878 394.669 186.751 403.125C190.623 411.581 236.356 342.654 236.356 342.654C236.356 342.654 207.681 407.346 191.34 421.924C174.999 436.502 178.627 346.565 178.627 346.565Z" fill="#4A6C8F"/>
</g>
<g style="mix-blend-mode:multiply" opacity="0.3">
<path d="M264.448 357.557C258.586 359.499 252.71 361.495 247.89 363.221L240.255 365.919C235.164 367.766 231.428 369.142 230.48 369.573C230.181 369.982 229.86 370.373 229.519 370.746C228.941 371.398 228.322 372.01 227.664 372.581C227.434 372.756 227.204 372.958 226.96 373.16L226.73 373.336C226.374 373.595 226.003 373.834 225.62 374.051C224.101 374.856 222.521 375.541 220.895 376.1L220.448 376.276C218.282 377.017 216.183 377.624 214.924 377.881C214.382 378.147 213.821 378.372 213.245 378.555C212.842 378.649 212.422 378.647 212.02 378.548C211.617 378.45 211.244 378.258 210.93 377.988L210.538 377.638C210.052 377.153 209.755 376.513 209.698 375.831C209.691 375.705 209.691 375.579 209.698 375.453L209.549 375.345C209.245 375.487 208.933 375.613 208.615 375.723C208.028 375.843 207.42 375.826 206.84 375.674C206.26 375.522 205.723 375.239 205.271 374.846C204.631 374.197 204.218 373.36 204.093 372.459C204.047 372.182 204.079 371.896 204.188 371.637L204.269 371.569C204.012 371.65 203.809 371.731 203.633 371.771C203.039 371.86 202.433 371.81 201.862 371.625C201.291 371.44 200.771 371.125 200.343 370.706C199.8 370.073 199.444 369.303 199.314 368.481C199.271 368.249 199.271 368.011 199.314 367.78H199.179C198.524 367.856 197.861 367.728 197.282 367.414C196.702 367.1 196.235 366.616 195.943 366.026C195.636 365.513 195.434 364.945 195.347 364.354C195.32 364.112 195.32 363.868 195.347 363.626C195.363 363.416 195.438 363.215 195.564 363.046C195.987 362.335 196.554 361.72 197.229 361.239L197.771 360.807C198.542 360.2 199.45 359.58 200.478 358.96C200.355 358.826 200.279 358.655 200.262 358.474C200.262 357.989 202.32 357.261 204.134 356.02C205.176 355.305 206.381 354.348 207.37 353.619C207.875 353.233 208.409 352.886 208.967 352.581L209.103 352.514L209.333 352.433C209.886 352.292 210.462 352.269 211.025 352.365L212.108 352.46H213.178C214.531 352.46 216.278 352.46 218.038 352.567C218.56 352.608 219.08 352.675 219.595 352.77C221.241 353.158 222.836 353.738 224.347 354.496C225.227 354.172 227.149 353.363 229.681 352.257C233.973 350.369 240.011 347.551 245.711 344.489C248.879 342.804 251.492 341.347 253.834 340.026C256.176 338.704 258.18 337.544 260.238 336.398C261.009 339.837 261.794 343.464 262.512 347.011C263.23 350.558 263.893 354.321 264.448 357.557Z" fill="#4A6C8F"/>
</g>
<path d="M169.028 342.56C159.118 383.733 150.331 439.362 148.829 474.277C145.121 472.885 141.55 471.156 138.16 469.112C138.16 469.112 142.086 438.229 152.849 393.699C157.059 376.303 162.465 359.217 169.028 342.56Z" fill="white"/>
<g style="mix-blend-mode:multiply" opacity="0.3">
<path d="M239.834 372.094C235.583 402.221 227.257 477.567 227.257 477.567C227.257 477.567 214.531 479.509 185.816 480.493C177.624 480.771 169.431 479.978 161.446 478.133C159.261 470.45 158.468 462.44 159.104 454.479C159.104 454.479 173.144 479.185 187.819 462.287C199.463 448.896 225.781 408.263 239.834 372.094Z" fill="#4A6C8F"/>
</g>
<g style="mix-blend-mode:multiply" opacity="0.3">
<path d="M251.41 317.962L248.702 329.992C245.778 329.574 239.564 327.82 238.061 328.576C236.328 329.439 233.499 332.905 228.381 332.473C223.264 332.041 221.856 329.978 219.798 329.978C217.74 329.978 211.675 333.457 208.967 333.565C206.259 333.673 200.911 328.791 200.587 328.791C200.262 328.791 194.833 331.61 191.015 332.257C187.197 332.905 187.319 328.36 184.814 328.576C183.162 328.724 177.585 330.383 174.809 328.791C177.517 322.723 179.277 319.419 179.277 319.419L251.41 317.962Z" fill="#4A6C8F"/>
</g>
<path d="M133.314 205.975L130.227 208.2L124.27 212.502L123.986 212.893L112.37 229.346C112.37 229.346 103.678 197.385 97.8429 178.882C94.3093 167.729 91.4121 158.653 91.1955 158.532C88.7824 156.909 86.6821 154.867 84.9948 152.503C84.4339 151.727 83.9531 150.895 83.5598 150.022C82.6588 148.012 81.8944 145.944 81.2717 143.832C80.3434 140.988 79.6684 138.068 79.2545 135.107C79.2545 133.758 97.8294 111.304 99.9278 112.181C101.079 112.68 103.15 115.512 105.045 118.708C106.508 121.114 107.749 123.646 108.755 126.273C109.797 129.281 110.109 136.887 110.028 142.456C110.06 144.492 109.924 146.526 109.621 148.539C109.384 149.57 109.09 150.587 108.741 151.586C108.721 151.689 108.721 151.794 108.741 151.897C108.741 152.045 109.093 153.016 109.676 154.594C111.354 159.098 115.091 168.484 119.383 177.237C121.183 180.918 122.74 183.98 124.148 186.677C127.519 193.393 130.119 198.18 133.314 205.975Z" fill="#DC8865"/>
<path opacity="0.5" d="M133.314 205.975L130.227 208.201C120.249 189.212 112.18 163.319 109.594 154.608C111.273 159.112 115.01 168.498 119.301 177.25C121.102 180.932 122.659 183.993 124.067 186.691C127.519 193.393 130.119 198.181 133.314 205.975Z" fill="white"/>
<path d="M123.985 212.894L112.369 229.347C112.369 229.347 103.678 197.386 97.8424 178.883C94.3089 167.73 91.4116 158.654 91.195 158.533C88.7819 156.91 86.6816 154.868 84.9943 152.505C84.4334 151.728 83.9526 150.896 83.5593 150.023C87.7795 152.086 92.2541 153.587 96.8676 154.487C96.8676 154.487 116.512 202.227 120.56 209.928C121.396 211.221 122.584 212.25 123.985 212.894Z" fill="#D25C2C"/>
<path d="M79.4437 136.024C79.4437 136.024 84.3581 150.751 93.5237 147.487C102.689 144.224 108.145 130.441 103.61 126.422C99.0745 122.403 79.4437 136.024 79.4437 136.024Z" fill="#AD402C"/>
<path d="M89.9904 142.632C90.036 143.513 89.7371 144.378 89.1565 145.044C88.5759 145.71 87.7587 146.127 86.8765 146.206C85.5604 145.729 84.4252 144.857 83.6273 143.711C83.2753 143.306 82.9639 142.888 82.6931 142.524C80.9768 139.989 79.6107 137.236 78.6316 134.338C78.5378 133.693 78.6132 133.035 78.8504 132.428C79.0877 131.82 79.4787 131.284 79.9854 130.872C80.6351 130.253 81.496 129.901 82.3953 129.888C82.6592 129.878 82.9221 129.924 83.167 130.023C83.8845 130.306 86.5245 136.307 87.2285 137.494C88.4186 139.049 89.351 140.783 89.9904 142.632Z" fill="#DC8865"/>
<path d="M89.9906 142.632C90.0362 143.513 89.7373 144.378 89.1567 145.044C88.5761 145.71 87.7589 146.127 86.8767 146.206C85.5606 145.729 84.4254 144.857 83.6275 143.711C87.8109 141.674 87.3506 140.083 85.7936 137.17C84.5616 134.891 83.0859 131.398 82.409 129.888C82.6729 129.878 82.9358 129.924 83.1807 130.023C83.8982 130.306 86.5383 136.307 87.2423 137.494C88.4276 139.05 89.3554 140.784 89.9906 142.632Z" fill="#D25C2C"/>
<path d="M95.352 138.721C95.5352 139.519 95.4391 140.355 95.0796 141.091C94.7201 141.827 94.1187 142.419 93.3753 142.767C91.859 143.509 90.4646 142.767 89.1649 141.001L88.7181 140.38C87.6259 138.883 86.6656 137.295 85.8479 135.633C84.9002 133.61 82.9236 129.753 82.5987 128.526C82.4738 127.751 82.5311 126.959 82.766 126.21C83.0009 125.461 83.4071 124.777 83.9525 124.211C84.8377 123.437 85.9474 122.964 87.1205 122.862C87.492 122.827 87.8661 122.892 88.2036 123.051C88.6369 123.347 90.1802 128.688 91.4393 131.291C92.6984 133.893 94.8917 137.373 95.352 138.721Z" fill="#DC8865"/>
<path d="M95.3517 138.721C95.535 139.518 95.4389 140.355 95.0793 141.091C94.7198 141.827 94.1184 142.418 93.3751 142.766C91.8588 143.508 90.4643 142.766 89.1646 141L88.7178 140.379C91.9129 139.948 93.0095 137.21 92.6981 136.455C91.4261 134.166 90.2958 131.801 89.3135 129.375C88.4606 126.988 87.5535 124.156 87.1203 122.794C87.4918 122.759 87.8658 122.824 88.2034 122.983C88.6366 123.279 90.18 128.62 91.4391 131.222C92.6981 133.825 94.8914 137.372 95.3517 138.721Z" fill="#D25C2C"/>
<path d="M100.199 133.178C100.324 133.977 100.175 134.794 99.7776 135.499C99.3797 136.203 98.7555 136.754 98.0053 137.062C96.4348 137.71 95.081 136.968 93.9437 135.066L93.2533 133.947C92.3482 132.541 91.5734 131.056 90.9382 129.51C90.0988 127.433 88.3388 123.482 88.0951 122.241C88.0104 121.461 88.1094 120.672 88.3844 119.937C88.6594 119.202 89.1027 118.541 89.6791 118.007C90.5282 117.33 91.5508 116.905 92.6305 116.779C93.0962 116.716 93.5703 116.801 93.9844 117.022C94.4041 117.332 95.6361 122.74 96.6921 125.424C97.7481 128.108 99.833 131.776 100.199 133.178Z" fill="#DC8865"/>
<path d="M100.198 133.178C100.323 133.977 100.175 134.794 99.7769 135.499C99.379 136.203 98.7548 136.754 98.0046 137.062C96.4341 137.71 95.0803 136.968 93.943 135.066L93.2526 133.947C96.2311 133.286 97.7609 131.371 97.436 130.454C97.3141 130.104 95.6083 126.813 94.5387 123.873C93.7709 121.546 93.1336 119.177 92.6298 116.779C93.0955 116.716 93.5695 116.801 93.9836 117.022C94.4033 117.332 95.6354 122.74 96.6914 125.424C97.7474 128.108 99.8323 131.776 100.198 133.178Z" fill="#D25C2C"/>
<path d="M104.774 127.38C104.774 128.89 103.894 129.646 102.486 130.266C101.078 130.886 99.413 131.197 97.8426 128.54L97.5989 128.081C95.874 124.415 94.5137 120.589 93.5373 116.659C93.4726 115.802 93.6761 114.947 94.1198 114.21C94.5635 113.473 95.2256 112.892 96.0148 112.546C98.1133 111.44 99.7109 111.858 100.076 112.289C101.187 113.638 102.297 118.358 103.258 120.934C104.121 122.983 104.634 125.162 104.774 127.38Z" fill="#DC8865"/>
<path d="M104.775 127.38C104.775 128.89 103.895 129.645 102.487 130.266C101.079 130.886 99.4134 131.196 97.843 128.539C100.09 128.742 100.551 127.771 101.458 126.584C102.365 125.397 102.663 122.538 101.458 119.841C100.623 117.406 100.122 114.871 99.9685 112.302C101.079 113.651 102.189 118.371 103.15 120.947C104.049 122.986 104.598 125.16 104.775 127.38Z" fill="#D25C2C"/>
<path opacity="0.5" d="M112.951 134.244C112.667 136.348 112.951 140.501 112.071 143.981C111.566 145.856 110.843 147.666 109.919 149.375C111.408 143.01 112.396 133.327 111.936 131.439C111.475 129.551 110.447 129.119 107.874 125.006C105.708 121.513 105.898 119.612 104.449 119.194C104.624 119.015 104.814 118.853 105.018 118.708C105.208 118.563 105.441 118.483 105.681 118.479C106.317 118.6 107.17 121.176 108.714 123.63C109.58 124.979 110.758 126.638 111.665 127.973C112.192 128.695 112.645 129.468 113.019 130.279C113.439 131.52 113.235 132.154 112.951 134.244Z" fill="white"/>
<path d="M182.228 222.926L181.687 229.224L180.847 252.15L178.722 275.737C172.195 277.362 165.415 277.719 158.752 276.789C148.747 275.116 134.965 277.692 125.61 273.566C116.255 269.439 105.966 264.786 105.966 264.786C105.153 257.056 105.244 249.259 106.236 241.55C106.969 235.485 108.493 229.541 110.772 223.87C114.956 213.722 122.113 205.065 131.31 199.029C132.664 198.193 133.408 197.788 133.408 197.788L140.367 212.623C140.367 212.623 154.447 214.255 156.871 214.174C159.294 214.093 162.354 217.464 162.354 217.464L170.057 218.975L182.228 222.926Z" fill="#D6D2D1"/>
<path d="M182.229 222.926L181.687 229.224C176.718 226.527 162.246 220.957 159.822 221.241C156.262 221.659 147.353 231.328 147.083 231.625C146.812 231.921 155.016 218.422 154.732 218.436C154.448 218.449 146.947 215.738 142.371 216.291C137.795 216.844 125.638 224.868 125.624 224.491C125.611 224.113 138.12 215.145 138.12 215.145C138.12 215.145 133.883 205.314 131.351 199.097C132.705 198.261 133.449 197.856 133.449 197.856L140.408 212.691C140.408 212.691 154.488 214.322 156.912 214.241C159.335 214.16 162.395 217.532 162.395 217.532L170.098 219.042L182.229 222.926Z" fill="white"/>
<g style="mix-blend-mode:multiply" opacity="0.3">
<path d="M180.847 252.217L178.722 275.804C172.195 277.43 165.415 277.787 158.752 276.856C148.747 275.184 134.965 277.76 125.61 273.633C116.255 269.506 105.966 264.854 105.966 264.854C105.153 257.124 105.244 249.326 106.236 241.617C111.097 247.254 117.717 252.406 124.947 251.057C139.663 248.252 137.131 244.436 149.127 250.707C157.683 255.157 173.049 255.279 180.847 252.217Z" fill="#4A6C8F"/>
</g>
<g style="mix-blend-mode:multiply" opacity="0.3">
<g style="mix-blend-mode:multiply" opacity="0.3">
<path d="M121.67 242.562C121.461 242.561 121.255 242.505 121.075 242.4C119.721 241.726 120.289 239.824 120.953 237.936C125.42 225.233 137.862 216.548 138.39 216.183C138.635 216.046 138.922 216.004 139.195 216.067C139.468 216.13 139.708 216.292 139.868 216.521C140.027 216.751 140.095 217.032 140.057 217.309C140.019 217.586 139.878 217.839 139.663 218.018C139.541 218.112 127.302 226.676 123.078 238.665C123.078 238.88 122.943 239.069 122.889 239.231C125.678 236.385 131.526 228.564 136.59 221.2C136.673 221.079 136.78 220.975 136.904 220.895C137.028 220.815 137.166 220.76 137.311 220.733C137.457 220.706 137.606 220.708 137.75 220.738C137.895 220.769 138.032 220.827 138.153 220.91C138.275 220.994 138.379 221.1 138.46 221.223C138.54 221.347 138.596 221.484 138.623 221.629C138.65 221.774 138.648 221.922 138.617 222.066C138.587 222.21 138.528 222.347 138.445 222.468C126.355 240.081 122.97 242.481 121.67 242.562Z" fill="#4A6C8F"/>
</g>
</g>
<g style="mix-blend-mode:multiply" opacity="0.3">
<g style="mix-blend-mode:multiply" opacity="0.3">
<path d="M141.166 253.432H141.071C140.923 253.425 140.779 253.389 140.645 253.327C140.511 253.264 140.391 253.176 140.292 253.067C140.193 252.958 140.116 252.83 140.066 252.692C140.016 252.553 139.994 252.406 140.001 252.259C140.597 238.247 152.741 220.891 153.256 220.162C153.34 220.041 153.447 219.937 153.572 219.856C153.696 219.776 153.836 219.721 153.982 219.695C154.128 219.669 154.278 219.671 154.422 219.703C154.567 219.735 154.705 219.795 154.826 219.879C155.068 220.053 155.232 220.314 155.283 220.606C155.333 220.899 155.267 221.2 155.097 221.444C154.975 221.619 142.818 238.975 142.249 252.353C142.236 252.635 142.117 252.902 141.917 253.102C141.717 253.301 141.449 253.419 141.166 253.432Z" fill="#4A6C8F"/>
</g>
</g>
<g style="mix-blend-mode:multiply" opacity="0.3">
<g style="mix-blend-mode:multiply" opacity="0.3">
<path d="M150.86 266.284C150.721 266.303 150.579 266.303 150.44 266.284C149.086 265.988 148.328 265.799 151.361 245.044C151.404 244.749 151.563 244.483 151.803 244.305C152.043 244.126 152.344 244.05 152.64 244.093C152.936 244.136 153.203 244.295 153.382 244.534C153.561 244.773 153.638 245.073 153.595 245.368C152.498 252.866 151.956 257.505 151.699 260.283C151.739 260.187 151.77 260.088 151.794 259.986C155.855 247.202 157.561 226.407 157.575 226.272C157.599 225.976 157.739 225.701 157.964 225.507C158.19 225.313 158.482 225.215 158.78 225.233C159.078 225.261 159.354 225.403 159.548 225.63C159.743 225.856 159.841 226.149 159.822 226.447C159.755 227.31 158.13 247.714 153.947 260.742C152.552 264.922 151.889 266.244 150.86 266.284Z" fill="#4A6C8F"/>
</g>
</g>
<path d="M274.25 290.546C274.25 293.796 259.885 316.547 259.885 316.547C232.928 322.19 205.102 322.337 178.085 316.978L174.024 307.174L170.436 298.368L169.529 296.183L169.854 289.44L171.939 246.083L180.198 227.351L182.161 222.901L193.465 221.485L203.091 220.284L219.337 218.234L238.765 226.043L247.416 229.509L271.786 239.259C271.995 240.942 272.117 242.634 272.151 244.33C272.693 253.864 273.6 274.403 273.979 284.639C274.182 287.781 274.25 289.939 274.25 290.546Z" fill="#D6D2D1"/>
<path d="M216.995 256.157L208.926 262.563L207.626 259.097L206.489 256.09L193.533 221.525L203.159 220.311L214.017 248.416L215.086 251.208L216.995 256.157Z" fill="#BFBEBE"/>
<g style="mix-blend-mode:multiply" opacity="0.3">
<path d="M216.995 256.155L208.926 262.561L207.626 259.095L206.503 256.101L214.016 248.428L215.086 251.206L216.995 256.155Z" fill="#4A6C8F"/>
</g>
<path d="M247.498 229.535L174.092 307.173L170.504 298.367L207.586 259.096L215.032 251.193L238.806 226.069L247.498 229.535Z" fill="#BFBEBE"/>
<g style="mix-blend-mode:multiply" opacity="0.3">
<path d="M274.25 290.545C274.25 293.795 259.885 316.546 259.885 316.546C232.928 322.189 205.102 322.336 178.085 316.977L174.024 307.173L170.436 298.367L169.529 296.182L169.854 289.439C175.96 297.531 190.649 309.034 195.212 309.803C200.424 310.666 193.858 302.224 192.166 297.018C190.473 291.813 205.704 302.224 213.489 303.303C221.273 304.382 250.462 287.052 255.255 287.7C260.048 288.347 244.803 300.646 243.978 301.32C244.858 300.875 263.649 291.098 273.979 284.638C274.182 287.78 274.25 289.938 274.25 290.545Z" fill="#4A6C8F"/>
</g>
<path d="M272.218 244.356C270.837 244.114 269.478 243.758 268.157 243.29C257.502 239.609 237.885 228.267 227.663 224.585C217.441 220.904 213.123 220.337 203.984 223.587C196.186 226.284 184.583 228.982 180.265 227.377L182.228 222.926L193.532 221.51L203.158 220.31L219.405 218.26L238.832 226.069L247.483 229.535L271.853 239.285C272.062 240.968 272.184 242.66 272.218 244.356Z" fill="white"/>
<path d="M262.701 319.271C262.024 321.968 256.636 322.979 254.145 323.087C252.823 323.183 251.495 323.051 250.218 322.696C250.218 322.696 245.466 325.164 241.987 325.056C240.296 325.073 238.614 324.818 237.005 324.301C237.005 324.301 229.978 326.31 226.553 326.189C224.664 326.189 222.804 325.726 221.138 324.84C221.138 324.84 214.301 327.632 210.645 326.836C208.374 326.348 206.157 325.639 204.025 324.719C204.025 324.719 195.902 326.674 193.032 326.068C191.209 325.626 189.57 324.626 188.347 323.209C188.347 323.209 182.729 324.436 179.466 323.869C176.758 323.397 175.134 320.606 174.701 319.743C174.619 319.594 174.579 319.5 174.579 319.5C174.356 319.203 174.152 318.892 173.969 318.569C173.512 317.805 173.195 316.964 173.035 316.088C172.914 315.533 172.914 314.958 173.035 314.402C173.073 314.1 173.177 313.81 173.342 313.553C173.507 313.297 173.727 313.081 173.987 312.92C174.247 312.76 174.539 312.659 174.843 312.626C175.147 312.593 175.455 312.629 175.743 312.73C179.805 310.505 185.139 313.499 185.139 313.499C187.829 313.06 190.572 313.06 193.262 313.499C195.246 314.052 197.146 314.874 198.907 315.94C198.907 315.94 206.435 314.038 208.967 314.362C210.789 314.689 212.528 315.371 214.084 316.371C214.084 316.371 220 313.836 222.275 314.24C224.276 314.753 226.205 315.514 228.015 316.506C228.015 316.506 234.04 314.065 236.545 314.132C238.608 314.374 240.608 314.991 242.447 315.953C244.374 314.412 246.747 313.528 249.217 313.431C251.174 313.313 253.137 313.522 255.025 314.052C255.241 314.052 257.732 312.271 259.966 313.418C260.606 313.706 261.177 314.125 261.644 314.648C262.11 315.171 262.461 315.785 262.674 316.452C262.93 317.373 262.939 318.345 262.701 319.271Z" fill="#EABC32"/>
<g style="mix-blend-mode:multiply" opacity="0.3">
<path d="M197.5 317.234L188.334 323.127C188.334 323.127 182.715 324.355 179.453 323.788C176.745 323.316 175.12 320.525 174.687 319.662C176.921 320.713 179.669 320.43 183.311 319.985C188.084 319.308 192.82 318.39 197.5 317.234Z" fill="#D8782D"/>
</g>
<g style="mix-blend-mode:multiply" opacity="0.3">
<path d="M213.285 317.503L204.011 324.664C204.011 324.664 195.888 326.62 193.018 326.013C191.195 325.571 189.557 324.571 188.334 323.154C190.797 324.124 193.483 324.395 196.091 323.936C200.816 323.262 212.554 317.841 213.285 317.503Z" fill="#D8782D"/>
</g>
<g style="mix-blend-mode:multiply" opacity="0.3">
<path d="M228.03 317.194L221.125 324.827C221.125 324.827 214.288 327.619 210.633 326.823C208.361 326.335 206.144 325.626 204.012 324.706C204.012 324.706 212.027 324.827 215.547 323.978C219.067 323.128 227.488 317.531 228.03 317.194Z" fill="#D8782D"/>
</g>
<g style="mix-blend-mode:multiply" opacity="0.3">
<path d="M242.502 316.237L237.005 324.328C237.005 324.328 229.978 326.338 226.553 326.216C224.664 326.216 222.804 325.753 221.138 324.868C224.591 324.511 228.019 323.939 231.4 323.155C235.272 322.036 242.502 316.237 242.502 316.237Z" fill="#D8782D"/>
</g>
<g style="mix-blend-mode:multiply" opacity="0.3">
<path d="M262.701 319.271C262.025 321.968 256.636 322.98 254.145 323.087C252.824 323.184 251.495 323.051 250.219 322.696C250.219 322.696 245.467 325.164 241.988 325.056C240.297 325.074 238.614 324.819 237.005 324.301C237.005 324.301 245.128 322.656 248.391 320.62C250.966 318.713 253.246 316.441 255.16 313.877L253.617 320.107C253.617 320.107 260.386 320.943 262.431 316.749C262.431 316.601 262.58 316.452 262.634 316.318C262.928 317.277 262.951 318.299 262.701 319.271Z" fill="#D8782D"/>
</g>
<g style="mix-blend-mode:multiply" opacity="0.3">
<path d="M182.81 315.628C182.81 315.628 176.637 318.609 173.956 318.487C173.498 317.722 173.182 316.882 173.022 316.006C175.662 316.734 181.93 315.763 182.81 315.628Z" fill="#D8782D"/>
</g>
<path opacity="0.5" d="M188.74 314.659C183.758 316.007 181.863 318.704 188.74 317.234C195.618 315.764 192.897 313.553 188.74 314.659Z" fill="white"/>
<path opacity="0.5" d="M179.724 312.757C176.285 313.027 174.457 315.346 179.155 315.279C183.853 315.211 182.581 312.541 179.724 312.757Z" fill="white"/>
<path opacity="0.5" d="M202.753 316.882C198.122 319.121 196.782 322.277 203.267 319.404C209.752 316.532 206.611 315.008 202.753 316.882Z" fill="white"/>
<path opacity="0.5" d="M218.417 317.437C214.044 320.134 213.001 323.384 219.202 319.904C225.403 316.425 222.113 315.171 218.417 317.437Z" fill="white"/>
<path opacity="0.5" d="M233.025 316.451C228.652 319.148 227.609 322.412 233.81 318.905C240.011 315.399 236.653 314.172 233.025 316.451Z" fill="white"/>
<path opacity="0.5" d="M245.9 316.465C242.718 319.324 242.339 322.062 246.875 318.313C251.41 314.564 248.553 314.038 245.9 316.465Z" fill="white"/>
<path opacity="0.5" d="M257.286 315.71C254.89 317.773 254.741 320.241 258.166 317.598C261.591 314.955 259.263 314.038 257.286 315.71Z" fill="white"/>
<path d="M231.075 199.312L230.628 225.205L215.289 244.166L207.369 224.949L206.476 222.818L207.897 206.244L229.031 199.919L231.075 199.312Z" fill="#DC8865"/>
<path d="M230.683 201.579C230.358 205.153 225.267 225.314 208.33 224.991C208.006 224.991 207.681 224.991 207.369 224.991L206.476 222.86L207.829 206.272L228.963 199.961L230.683 201.579Z" fill="#18203D"/>
<path d="M199.124 182.955C199.124 182.955 196.714 177.291 192.68 179.745C188.645 182.2 191.989 194.782 199.611 193.649L199.124 182.955Z" fill="#DC8865"/>
<path d="M193.817 182.712C196.037 184.388 197.705 186.683 198.61 189.307" stroke="#18203D" stroke-width="3.85598" stroke-linecap="round" stroke-linejoin="round"/>
<path d="M194.711 187.986C195.009 186.911 195.52 185.907 196.213 185.032" stroke="#18203D" stroke-width="3.85598" stroke-linecap="round" stroke-linejoin="round"/>
<path d="M236.775 182.753C236.775 182.753 239.483 177.224 243.382 179.907C247.281 182.591 243.233 194.944 235.679 193.393L236.775 182.753Z" fill="#DC8865"/>
<path d="M242.096 182.792C239.782 184.344 237.982 186.545 236.924 189.117" stroke="#18203D" stroke-width="3.85598" stroke-linecap="round" stroke-linejoin="round"/>
<path d="M240.905 188.011C240.656 186.922 240.196 185.891 239.551 184.977" stroke="#18203D" stroke-width="3.85598" stroke-linecap="round" stroke-linejoin="round"/>
<path d="M235.313 198.437C235.151 199.785 229.898 206.11 225.836 210.264C224.619 211.697 223.179 212.927 221.571 213.905C219.541 214.512 212.094 214.647 209.387 213.163C209.206 213.073 209.037 212.96 208.886 212.826C206.814 210.979 200.397 202.631 199.747 198.949C199.097 195.268 197.784 169.146 198.231 164.601C198.231 164.601 202.469 164.412 208.209 164.291C216.048 164.129 226.675 164.129 232.944 165.032C235.909 165.45 237.899 166.084 238.129 166.988C239.104 171.249 235.516 196.481 235.313 198.437Z" fill="#DC8865"/>
<path d="M209.264 213.19C209.083 213.1 208.915 212.987 208.763 212.853C206.692 211.005 200.275 202.658 199.625 198.976C198.975 195.294 197.662 169.172 198.109 164.627C198.109 164.627 202.346 164.438 208.087 164.317C206.052 175.117 204.825 186.053 204.418 197.034C204.35 201.039 207.125 208.241 209.264 213.19Z" fill="#D25C2C"/>
<path opacity="0.5" d="M235.313 198.436C235.151 199.785 229.898 206.11 225.836 210.264C228.909 205.166 232.253 199.084 232.429 196.481C233.296 186.029 233.449 175.531 232.89 165.059C235.855 165.477 237.845 166.111 238.075 167.014C239.104 171.249 235.516 196.481 235.313 198.436Z" fill="white"/>
<path d="M240.985 168.39C240.928 169.295 240.81 170.196 240.633 171.087C239.808 175.133 237.452 183.103 237.452 183.103C237.452 183.103 232.862 172.22 232.7 171.95C232.537 171.68 203.335 171.087 203.335 171.087L198.542 182.321C197.192 178.818 196.283 175.163 195.834 171.437C195.579 168.381 195.579 165.31 195.834 162.254C196.214 159.044 197.188 155.956 199.111 154.162C201.122 152.299 203.583 150.987 206.255 150.353C208.926 149.72 211.717 149.787 214.355 150.548C214.355 150.548 216.819 148.12 224.482 148.484C232.145 148.849 237.601 152.625 239.374 156.751C240.774 160.463 241.324 164.439 240.985 168.39Z" fill="#18203D"/>
<path opacity="0.3" d="M240.985 168.39C239.888 163.09 238.182 153.016 229.139 150.858C226.537 150.24 223.835 150.173 221.206 150.664C218.577 151.154 216.081 152.19 213.881 153.703C213.881 153.703 208.736 150.683 201.953 154.351C198.971 156.112 196.781 158.945 195.834 162.267C196.213 159.057 197.188 155.969 199.11 154.175C201.12 152.31 203.581 150.996 206.252 150.36C208.924 149.724 211.716 149.789 214.355 150.548C214.355 150.548 216.819 148.12 224.482 148.484C232.144 148.849 237.6 152.625 239.374 156.751C240.773 160.463 241.324 164.439 240.985 168.39Z" fill="white"/>
<path d="M241.866 169.739C241.663 171.856 241.5 173.582 241.5 173.582L194.914 171.654L194.603 165.868L194.305 160.285C194.305 160.285 242.448 161.984 242.516 162.2C242.583 162.416 242.177 166.529 241.866 169.739Z" fill="white"/>
<path d="M217.103 171.208C219.436 171.208 221.327 169.324 221.327 167C221.327 164.676 219.436 162.793 217.103 162.793C214.77 162.793 212.879 164.676 212.879 167C212.879 169.324 214.77 171.208 217.103 171.208Z" fill="#CA404E"/>
<g style="mix-blend-mode:multiply" opacity="0.3">
<path d="M241.865 169.74C241.662 171.857 241.5 173.583 241.5 173.583L194.914 171.655L194.602 165.869C203.836 166.409 218.065 166.651 219.31 166.651C221.057 166.651 211.106 168.472 211.106 168.472C211.106 168.472 230.886 169.268 241.865 169.74Z" fill="#4A6C8F"/>
</g>
<path d="M203.944 183.818C205.286 182.819 206.948 182.344 208.617 182.483C210.286 182.623 211.845 183.366 213.001 184.573C210.106 183.512 206.976 183.251 203.944 183.818Z" fill="#18203D"/>
<path d="M204.039 177.641L212.948 179.785C212.948 179.785 212.528 178.315 211.81 178.059C211.093 177.803 204.039 177.641 204.039 177.641Z" fill="#18203D"/>
<path d="M228.72 178.018L219.771 180.163C219.771 180.163 220.19 178.693 220.908 178.436C221.626 178.18 228.72 178.018 228.72 178.018Z" fill="#18203D"/>
<path d="M220.095 184.842C221.359 183.677 222.975 182.962 224.69 182.811C226.406 182.659 228.123 183.08 229.572 184.006C226.39 183.889 223.207 184.17 220.095 184.842Z" fill="#18203D"/>
<path d="M215.506 187.77C215.506 187.77 213.354 193.703 212.907 195.173C212.46 196.643 216.088 197.129 216.088 197.129" stroke="#18203D" stroke-width="3.85598" stroke-linecap="round" stroke-linejoin="round"/>
<path d="M222.383 201.12C222.383 201.12 219.526 205.166 215.966 205.247C212.405 205.328 210.049 201.201 210.049 201.201C210.049 201.201 216.981 199.475 222.383 201.12Z" fill="white"/>
<path d="M276.01 321.657L264.732 324.826C264.732 324.826 269.281 336.384 273.722 342.439C278.163 348.494 293.773 353.228 293.773 353.228C293.773 353.228 297.509 348.44 292.256 337.328C288.756 330.439 283.034 324.921 276.01 321.657Z" fill="#D6D2D1"/>
<path d="M289.44 341.927C289.44 341.927 261.713 350.625 245.656 356.37C242.949 357.382 240.241 358.299 238.021 359.135C232.93 360.983 229.194 362.358 228.259 362.79C227.429 363.892 226.48 364.901 225.43 365.797C225.2 365.972 224.983 366.161 224.726 366.377C224.655 366.439 224.578 366.493 224.496 366.539C224.143 366.803 223.772 367.042 223.386 367.254C221.866 368.06 220.286 368.75 218.661 369.317L218.214 369.479C216.048 370.22 213.949 370.827 212.69 371.097C212.144 371.354 211.584 371.579 211.011 371.771C210.608 371.859 210.189 371.854 209.788 371.756C209.387 371.657 209.013 371.469 208.696 371.205L208.304 370.854C207.824 370.367 207.532 369.727 207.478 369.047C207.47 368.921 207.47 368.795 207.478 368.67L207.315 368.562C206.923 368.724 206.598 368.872 206.395 368.939C205.804 369.055 205.194 369.036 204.613 368.881C204.031 368.727 203.492 368.443 203.037 368.049C202.398 367.405 201.985 366.573 201.859 365.676C201.814 365.394 201.847 365.105 201.954 364.84L202.035 364.772C201.828 364.856 201.615 364.928 201.399 364.988C200.807 365.071 200.203 365.02 199.633 364.838C199.063 364.655 198.542 364.347 198.109 363.936C197.571 363.301 197.215 362.532 197.08 361.711C197.037 361.479 197.037 361.241 197.08 361.01H196.945C196.29 361.082 195.629 360.952 195.051 360.639C194.472 360.326 194.004 359.843 193.709 359.256C193.402 358.739 193.2 358.166 193.113 357.571C193.086 357.329 193.086 357.084 193.113 356.842C193.135 356.638 193.21 356.443 193.33 356.276C193.753 355.565 194.32 354.95 194.995 354.469C195.158 354.321 195.347 354.186 195.537 354.037C196.309 353.431 197.229 352.797 198.245 352.19C198.124 352.05 198.052 351.875 198.042 351.691C198.042 351.219 200.086 350.491 201.9 349.236C202.942 348.522 204.147 347.578 205.136 346.849C205.639 346.453 206.178 346.106 206.747 345.811L206.869 345.744L207.112 345.663C207.659 345.51 208.233 345.482 208.791 345.582L209.874 345.69H210.944C212.298 345.69 214.058 345.69 215.804 345.798C216.328 345.824 216.848 345.892 217.361 346C219.007 346.384 220.601 346.959 222.113 347.713C229.402 344.748 236.532 341.413 243.477 337.719C246.645 336.02 249.258 334.564 251.6 333.242C255.661 330.936 258.884 329.062 262.81 327.066L263.338 326.809L263.554 326.701C264.908 326 266.492 325.272 268.171 324.49L281.588 327.484L289.44 341.927Z" fill="#DC8865"/>
<path d="M289.44 341.927C289.44 341.927 261.713 350.625 245.656 356.37C242.949 357.381 240.241 358.298 238.021 359.135C232.93 360.982 229.194 362.358 228.26 362.789C227.429 363.892 226.48 364.9 225.43 365.797C225.2 365.972 224.983 366.161 224.726 366.376C224.655 366.438 224.578 366.492 224.496 366.538C224.143 366.803 223.772 367.041 223.386 367.253C225.231 364.209 226.6 360.903 227.447 357.449C227.447 357.449 270.351 340.376 272.314 339.647C274.277 338.919 274.196 334.941 274.196 334.941C271.212 331.498 267.518 328.738 263.365 326.849L263.581 326.741C264.935 326.04 266.519 325.312 268.198 324.53L281.615 327.524L289.44 341.927Z" fill="#D25C2C"/>
<path opacity="0.5" d="M262.796 327.091C260.037 329.604 257.086 331.899 253.969 333.956C249.082 337.125 222.073 349.559 222.073 349.559C222.073 349.559 209.509 347.037 208.277 347.442C207.41 347.738 200.154 351.487 195.578 354.009C196.349 353.402 197.27 352.769 198.285 352.162C198.164 352.022 198.093 351.847 198.082 351.663C198.082 351.191 200.127 350.462 201.941 349.208C202.983 348.493 204.188 347.549 205.176 346.821C205.679 346.425 206.219 346.077 206.788 345.783L206.909 345.715L207.153 345.634C207.699 345.482 208.273 345.454 208.832 345.554L209.915 345.661H210.984C212.338 345.661 214.098 345.661 215.845 345.769C216.368 345.796 216.889 345.864 217.402 345.972C219.047 346.356 220.642 346.931 222.154 347.684C229.442 344.72 236.573 341.385 243.518 337.691C246.686 335.992 249.298 334.536 251.641 333.214C255.621 330.962 258.87 329.087 262.796 327.091Z" fill="white"/>
<path d="M218.634 369.329L218.187 369.491C216.021 370.232 213.922 370.839 212.663 371.109C212.117 371.366 211.557 371.591 210.984 371.783C210.58 371.869 210.16 371.862 209.759 371.761C209.358 371.661 208.985 371.47 208.669 371.203L208.29 370.866C207.797 370.387 207.498 369.744 207.451 369.059C207.437 368.934 207.437 368.807 207.451 368.682L207.288 368.574C206.984 368.716 206.672 368.842 206.354 368.951C205.766 369.07 205.157 369.052 204.577 368.898C203.997 368.743 203.461 368.457 203.01 368.061C202.369 367.419 201.955 366.585 201.832 365.688C201.787 365.406 201.82 365.117 201.927 364.852L202.022 364.784C201.751 364.879 201.548 364.96 201.386 365C200.794 365.083 200.191 365.031 199.623 364.846C199.055 364.661 198.537 364.35 198.109 363.935C197.567 363.307 197.211 362.541 197.08 361.723C197.037 361.491 197.037 361.253 197.08 361.022H196.945C196.29 361.096 195.629 360.966 195.052 360.649C194.474 360.333 194.01 359.846 193.723 359.255C193.407 358.745 193.2 358.176 193.113 357.583C193.086 357.341 193.086 357.096 193.113 356.855C195.171 359.093 200.465 355.02 200.465 355.02C201.127 356.226 202.219 357.14 203.525 357.583C204.146 359.273 205.404 360.656 207.031 361.44C207.166 362.407 207.583 363.314 208.23 364.047C208.878 364.781 209.727 365.309 210.673 365.566C210.673 365.566 212.122 369.612 218.092 369.315L218.634 369.329Z" fill="#D25C2C"/>
<path d="M306.58 327.012C306.445 328.981 293.773 353.255 293.773 353.255C293.773 353.255 284.539 332.784 279.869 329.952C275.198 327.12 264.733 324.827 264.733 324.827L264.584 324.342C263.839 321.806 260.414 310.033 259.696 306.486C259.696 306.297 259.629 306.136 259.601 305.987C259.114 302.886 262.715 295.037 262.715 295.037C262.715 295.037 258.938 283.682 257.787 281.146C257.263 279.94 256.921 278.663 256.772 277.357C255.35 267.283 261.334 250.884 267.142 243.008C267.657 242.32 268.171 241.66 268.672 241.147C269.305 240.424 270.028 239.784 270.825 239.246L271.001 239.138C272.044 239.37 273.075 239.659 274.088 240.001C274.575 240.23 288.1 265.004 289.833 270.762C291.566 276.521 293.177 290.317 293.272 291.193C293.272 291.193 297.577 289.723 298.552 290.829C299.527 291.935 299.675 303.573 299.675 303.573C299.675 303.573 304.333 308.482 304.956 309.332C305.578 310.181 304.685 314.2 304.428 315.549C304.428 315.805 304.333 315.967 304.333 315.967C304.333 315.967 306.688 325.056 306.58 327.012Z" fill="#D6D2D1"/>
<path d="M293.271 291.179C293.055 290.33 289.507 276.83 285.69 270.02C281.75 262.98 274.101 246.662 271.474 244.046C271.095 243.682 268.766 243.52 267.142 242.994C267.656 242.306 268.171 241.646 268.672 241.133C269.304 240.41 270.027 239.77 270.824 239.232L271 239.124C272.044 239.356 273.074 239.645 274.087 239.987C274.574 240.216 288.099 264.99 289.832 270.748C291.565 276.507 293.176 290.303 293.271 291.179Z" fill="white"/>
<g style="mix-blend-mode:multiply" opacity="0.3">
<path d="M277.986 308.913C271.971 307.597 265.858 306.776 259.709 306.459C259.672 306.299 259.645 306.137 259.628 305.974C259.127 302.858 262.728 295.023 262.728 295.023C262.728 295.023 258.951 283.668 257.813 281.119C257.289 279.916 256.943 278.645 256.784 277.343C263.12 286.581 275.914 292.649 277.011 292.407C278.487 292.083 291.619 295.67 293.745 296.655C295.87 297.639 276.849 298.003 273.897 298.624C270.946 299.244 293.907 305.974 297.847 309.075C301.786 312.177 288.817 311.341 277.986 308.913Z" fill="#4A6C8F"/>
</g>
<g style="mix-blend-mode:multiply" opacity="0.3">
<path d="M306.58 327.011C306.458 328.966 293.786 353.255 293.786 353.255C293.786 353.255 284.553 332.769 279.868 329.951C275.184 327.132 264.732 324.826 264.732 324.826C264.732 324.826 264.732 324.651 264.583 324.341L266.167 323.801C266.167 323.801 281.425 324.772 289.467 326.903C293.902 328.012 298.105 329.893 301.882 332.459C300.393 331.286 291.62 324.368 286.516 320.848C280.938 316.937 275.197 314.483 275.847 314.483C282.017 315.878 288.101 317.625 294.07 319.715C298.863 321.63 289.467 314.226 288.993 313.849C289.426 313.916 296.818 315.197 304.441 315.575L304.359 315.993C304.359 315.993 306.702 325.042 306.58 327.011Z" fill="#4A6C8F"/>
</g>
<rect x="102.914" y="82.2659" width="38.5598" height="64.2663" rx="5.14131" transform="rotate(42.9512 102.914 82.2659)" fill="#4C6E90"/>
<rect x="103.044" y="85.899" width="33.4185" height="59.125" rx="5.14131" transform="rotate(42.9512 103.044 85.899)" fill="white"/>
<path d="M92.1964 102.13C93.171 101.097 94.798 101.051 95.8303 102.025L112.653 117.908C113.686 118.883 113.732 120.51 112.758 121.542L110.993 123.411C110.018 124.443 108.391 124.49 107.359 123.516L90.5361 107.633C89.5038 106.658 89.457 105.031 90.4316 103.999L92.1964 102.13Z" fill="#E0E0E0"/>
<path d="M85.1374 109.607C86.112 108.574 87.739 108.527 88.7714 109.502L105.594 125.385C106.627 126.359 106.673 127.986 105.699 129.019L103.934 130.888C102.959 131.92 101.332 131.967 100.3 130.992L83.4771 115.11C82.4448 114.135 82.398 112.508 83.3727 111.476L85.1374 109.607Z" fill="#E0E0E0"/>
<path d="M78.0784 117.083C79.0531 116.051 80.68 116.004 81.7124 116.979L98.5352 132.862C99.5676 133.836 99.6144 135.463 98.6397 136.496L96.875 138.365C95.9003 139.397 94.2734 139.444 93.241 138.469L76.4181 122.587C75.3858 121.612 75.339 119.985 76.3137 118.953L78.0784 117.083Z" fill="#E0E0E0"/>
<path d="M99.5418 89.6616C101.477 87.5833 104.73 87.4669 106.808 89.4016L123.742 105.166C125.82 107.101 125.937 110.354 124.002 112.432L123.241 113.249C121.306 115.328 118.053 115.444 115.975 113.509L95.2779 94.2419L99.5418 89.6616Z" fill="#F00000"/>
<circle cx="79.3672" cy="135.856" r="3.85598" transform="rotate(42.9512 79.3672 135.856)" fill="#143E6B"/>
<g style="mix-blend-mode:multiply" opacity="0.3">
<g style="mix-blend-mode:multiply" opacity="0.3">
<path d="M281.073 300.322C280.935 300.27 280.819 300.174 280.74 300.05C280.662 299.926 280.627 299.78 280.639 299.634C280.644 299.543 280.668 299.453 280.708 299.371C280.749 299.288 280.805 299.215 280.875 299.154C280.944 299.094 281.025 299.048 281.112 299.019C281.2 298.991 281.292 298.98 281.384 298.987C286.813 299.578 292.086 301.16 296.94 303.653C297.101 303.739 297.222 303.885 297.275 304.06C297.329 304.234 297.31 304.423 297.224 304.584C297.135 304.745 296.986 304.866 296.808 304.919C296.631 304.972 296.44 304.953 296.276 304.867C291.592 302.472 286.509 300.95 281.276 300.376L281.073 300.322Z" fill="#4A6C8F"/>
</g>
</g>
<g style="mix-blend-mode:multiply" opacity="0.3">
<g style="mix-blend-mode:multiply" opacity="0.3">
<path d="M299.309 317.949C299.111 317.943 298.919 317.883 298.754 317.774C289.561 311.476 267.142 307.794 266.911 307.754C266.784 307.734 266.662 307.69 266.552 307.623C266.442 307.556 266.346 307.467 266.271 307.363C266.195 307.259 266.141 307.141 266.112 307.016C266.082 306.891 266.078 306.761 266.099 306.635C266.117 306.507 266.161 306.384 266.228 306.274C266.294 306.163 266.383 306.067 266.488 305.992C266.593 305.916 266.712 305.862 266.838 305.834C266.965 305.805 267.095 305.803 267.223 305.826C268.171 305.974 290.32 309.615 299.878 316.156C300.051 316.276 300.182 316.447 300.25 316.646C300.318 316.845 300.321 317.061 300.257 317.261C300.194 317.462 300.067 317.637 299.897 317.761C299.726 317.884 299.52 317.951 299.309 317.949Z" fill="#4A6C8F"/>
</g>
</g>
<g style="mix-blend-mode:multiply" opacity="0.3">
<g style="mix-blend-mode:multiply" opacity="0.3">
<path d="M295.126 327.996C294.984 327.995 294.843 327.963 294.715 327.902C294.586 327.842 294.472 327.754 294.381 327.645C284.904 316.6 269.308 312.19 269.146 312.15C268.894 312.077 268.681 311.91 268.552 311.683C268.423 311.456 268.388 311.188 268.455 310.936C268.528 310.686 268.696 310.475 268.925 310.348C269.153 310.222 269.422 310.191 269.674 310.262C270.337 310.437 286.069 314.887 295.884 326.445C296.005 326.588 296.083 326.763 296.108 326.95C296.132 327.136 296.103 327.325 296.024 327.495C295.944 327.665 295.817 327.809 295.658 327.909C295.499 328.01 295.314 328.063 295.126 328.063V327.996Z" fill="#4A6C8F"/>
</g>
</g>
<g style="mix-blend-mode:multiply" opacity="0.3">
<path d="M103.001 132.962L103.313 132.207C103.313 132.207 100.605 127.743 100.835 124.749C100.979 123.223 101.648 121.794 102.73 120.704C102.91 120.525 103.104 120.362 103.313 120.218C103.506 120.077 103.737 119.997 103.976 119.989C104.138 120.052 104.276 120.165 104.369 120.313C104.964 121.108 105.722 123.185 106.995 125.14C107.311 125.635 107.649 126.147 108.01 126.678L103.001 132.962Z" fill="#4A6C8F"/>
</g>
<path d="M112.952 134.244C112.668 136.348 112.952 140.501 112.072 143.981C111.567 145.856 110.844 147.666 109.919 149.375C109.405 150.36 108.958 151.155 108.728 151.56L108.538 151.843L103.583 154.405L103.042 154.675C103.042 154.675 97.6263 149.281 98.4927 142.538C99.0291 139.342 100.797 136.482 103.421 134.568L105.032 130.724C105.032 130.724 102.324 126.233 102.568 123.239C102.706 121.712 103.377 120.28 104.463 119.194C104.638 119.015 104.828 118.853 105.032 118.708C105.223 118.563 105.455 118.483 105.695 118.479C106.332 118.6 107.184 121.176 108.728 123.63C109.594 124.979 110.772 126.638 111.679 127.973C112.206 128.695 112.66 129.468 113.033 130.279C113.439 131.52 113.236 132.154 112.952 134.244Z" fill="#DC8865"/>
<defs>
<clipPath id="clip0_78_274">
<rect width="285.342" height="182.516" fill="white" transform="translate(0 293.059)"/>
</clipPath>
<clipPath id="clip1_78_274">
<rect width="269.919" height="241.641" fill="white" transform="translate(308.478 210.799)"/>
</clipPath>
</defs>
</svg>
